<svg width="120" height="120" viewBox="0 0 120 120" fill="none" xmlns="http://www.w3.org/2000/svg">
<path d="M32.3803 18.6475C25.0791 18.6902 18.5053 21.5029 13.2422 30.2857C16.6462 32.0301 19.3219 35.089 21.3501 38.8915C26.7858 34.3329 32.4262 32.9332 37.837 32.7902C38.0984 32.7832 38.3602 32.7771 38.6205 32.7757C40.444 32.7663 42.2393 32.8893 43.9894 33.0757L43.5206 37.4339C36.3708 36.6717 30.0494 36.6914 23.2401 43.0659C24.0117 45.0932 24.6558 47.2713 25.2028 49.5628C28.6237 47.4518 32.1162 46.709 35.5303 46.6917C35.8106 46.69 36.0933 46.6908 36.3727 46.6987C39.0527 46.7761 41.6754 47.2753 44.1656 47.8926L43.1109 52.1407C37.0017 50.6266 31.7812 49.893 26.148 54.2278C26.4171 55.8084 26.6442 57.3959 26.8291 58.9886C26.921 59.785 26.9962 60.5885 27.0705 61.398C29.2069 60.5074 31.3713 60.1005 33.4866 60.0651C33.9448 60.0581 34.403 60.0693 34.8562 60.0947C38.4797 60.2979 41.9166 61.4343 45.2273 62.7168L43.6453 66.8036C40.4859 65.5802 37.4606 64.627 34.6144 64.4676C32.1511 64.3293 29.8324 64.7196 27.4073 66.0862C27.5677 69.2932 27.6037 72.5597 27.5245 75.8268C31.3181 75.9956 35.4037 75.8442 39.3089 75.3731L40.4808 75.2339L41.2425 76.1348C45.5564 81.2583 48.3523 89.1286 48.7573 100.041C51.3091 99.7052 53.8425 99.1645 56.3894 98.3125C50.4869 74.389 48.4165 50.2141 56.3088 26.0001C48.9956 22.1803 40.6814 18.7908 33.0909 18.6541C32.8542 18.6499 32.6161 18.6454 32.3808 18.6471L32.3803 18.6475ZM83.9208 22.4266C80.2317 22.435 76.702 23.0857 73.8061 24.2871C69.8482 25.9291 67.2014 28.4613 66.3131 31.7578C71.872 55.7601 69.5201 73.934 66.4526 98.1665C67.7791 98.5509 69.4385 98.8898 71.3158 99.1847C72.2533 87.8503 77.509 78.9843 84.3752 73.9087L85.3861 73.1615L86.5432 73.6596C88.5037 74.501 91.1198 75.1029 94.0948 75.469C93.9848 74.2057 93.8943 72.9409 93.8233 71.6749C88.4876 67.5658 81.6893 67.69 75.5641 69.5217L74.3116 65.325C76.9608 64.5328 79.8293 64.0085 82.7421 63.9478C86.433 63.8704 90.1952 64.5485 93.6623 66.3867C93.6583 64.7538 93.6975 63.1575 93.7943 61.6113C93.8615 60.5308 93.9598 59.4771 94.0798 58.4472C88.7766 53.6027 83.4907 53.9215 77.2488 54.9536L76.5387 50.6318C78.2257 50.3529 79.9638 50.1311 81.7312 50.0533C82.0624 50.0388 82.3941 50.028 82.7273 50.024C86.8101 49.9776 90.9996 50.7904 94.9364 53.5397C95.5223 51.1631 96.3426 49.0111 97.4852 47.1604C91.2947 40.5698 85.0699 40.0617 77.9955 40.2534L77.8783 35.8809C78.3813 35.8673 78.8852 35.8608 79.3948 35.8589C79.9043 35.857 80.419 35.8596 80.933 35.8736C87.4017 36.0504 94.222 37.5907 100.357 43.8349C102.791 41.8877 106.012 40.9615 109.732 41.3229C108.848 36.1272 106.422 32.1733 103.089 29.1869C99.1793 25.6849 93.9651 23.5514 88.6453 22.7707C87.0811 22.5397 85.5019 22.4249 83.9208 22.4266ZM15.1465 78.157C9.46992 82.7859 5.01562 90.7711 4.61414 101.287C12.5862 104.087 24.0619 105.04 44.3775 101.023C44.1185 91.0535 41.786 84.1643 38.5619 79.849C30.1793 80.7365 21.4338 80.4239 15.1467 78.1568L15.1465 78.157ZM86.1183 78.157C80.444 82.7864 75.9872 90.7734 75.5859 101.287C83.557 104.087 95.0358 105.038 115.349 101.023C115.09 91.0525 112.758 84.1643 109.534 79.849C101.153 80.7356 92.4037 80.4232 86.1183 78.1568V78.157Z" fill="#0298BA"/>
</svg>
