<svg width="18" height="18" viewBox="0 0 18 18" fill="none" xmlns="http://www.w3.org/2000/svg">
<path d="M4.54639 9.54987C4.54639 9.54987 5.13139 6.48003 6.15514 5.16378C6.80201 4.33128 9.66514 2.53128 12.4425 3.26253L12.6956 3.30331C13.0064 3.95018 13.7278 5.60675 13.7025 6.50112C13.6645 7.90175 12.9375 12.0403 12.9375 12.0403C12.9375 12.0403 11.2415 11.4075 10.2628 10.9688C6.95248 9.488 4.54639 9.54987 4.54639 9.54987Z" fill="#2196F3"/>
<path d="M13.6547 6.03135C13.6083 5.81197 12.6633 3.30322 12.6633 3.30322C12.6633 3.30322 14.5182 3.78416 15.8963 5.23682C16.553 5.92869 17.3152 6.8076 17.4136 7.79479C17.5599 9.25588 16.9763 12.3229 16.9749 12.3271C16.9552 12.4298 15.9371 12.4368 15.8569 12.4382C15.3985 12.4481 13.8108 12.3876 12.8982 12.0149C12.8996 12.0149 13.8305 6.8751 13.6547 6.03135Z" fill="#1E88E5"/>
<path d="M6.86816 10.007C6.86816 9.94512 7.76676 5.87684 8.70613 5.00074C9.58082 4.18371 11.7507 3.13184 11.7507 3.13184L12.676 3.32871C12.676 3.32871 13.6139 5.2609 13.6843 6.30715C13.7813 7.74855 12.9586 12.0643 12.9586 12.0643" stroke="#0F60B2" stroke-width="0.259875" stroke-miterlimit="10"/>
<path d="M11.5354 2.97847C11.572 2.80409 11.9278 2.67753 12.33 2.7619C12.7322 2.84628 13.0289 3.11066 12.9923 3.28503C12.9557 3.45941 12.6098 3.37222 12.2076 3.28644C11.8054 3.20066 11.4989 3.15284 11.5354 2.97847Z" fill="#0F60B2"/>
<path d="M0.739743 13.1148C0.727087 13.2582 0.735524 13.6787 1.25302 13.434C1.77052 13.1893 2.84349 12.3793 2.84349 12.3793C2.84349 12.3793 1.80006 11.9898 1.25021 12.3174C0.700368 12.6451 0.7524 12.9713 0.739743 13.1148Z" fill="#0D47A1"/>
<path d="M1.06311 12.1316L4.5478 9.54977C4.5478 9.54977 5.27342 9.41195 6.93842 9.68617C8.96061 10.0195 13.9022 12.2568 13.9022 12.2568L11.4525 14.2959C11.4525 14.2959 9.91124 15.494 8.35311 14.7768C6.02436 13.7038 3.50577 12.3074 2.77592 12.1429C1.3542 11.8195 1.06311 12.1316 1.06311 12.1316Z" fill="#76C8FF"/>
<path d="M8.85093 15.2029C7.74984 14.9301 4.00921 12.8348 2.78999 12.4607C2.42578 12.3496 1.80421 12.223 1.41609 12.4284C1.07859 12.6069 0.790307 12.9585 0.881713 13.3621C0.895776 13.424 0.925307 13.4915 0.985776 13.5084C0.84937 13.5618 0.689057 13.4746 0.618745 13.3466C0.548432 13.2187 0.552651 13.0626 0.582182 12.9191C0.642651 12.6266 0.815619 12.3046 1.06312 12.1316C1.39078 11.9024 1.96734 11.7477 2.94046 12.0487C4.64765 12.576 8.04796 14.5898 8.92687 14.7712C10.2192 15.0369 11.2612 14.2551 11.5777 14.0723C11.8941 13.888 11.8702 14.0343 11.6508 14.196C11.4328 14.3577 10.2417 15.5474 8.85093 15.2029Z" fill="#2196F3"/>
</svg>
