<svg width="24" height="24" viewBox="0 0 24 24" fill="none" xmlns="http://www.w3.org/2000/svg">
<path opacity="0.15" d="M6.39001 21.75C6.39001 21.9489 6.98107 22.1397 8.03315 22.2803C9.08522 22.421 10.5122 22.5 12 22.5C13.4879 22.5 14.9148 22.421 15.9669 22.2803C17.019 22.1397 17.61 21.9489 17.61 21.75C17.61 21.5511 17.019 21.3603 15.9669 21.2197C14.9148 21.079 13.4879 21 12 21C10.5122 21 9.08522 21.079 8.03315 21.2197C6.98107 21.3603 6.39001 21.5511 6.39001 21.75Z" fill="#45413C"/>
<path d="M12 10.91C11.5 10.91 11.3 11.165 11 11.515L11.035 12.385C11.147 12.2308 11.2915 12.103 11.4582 12.0105C11.6249 11.9181 11.8098 11.8633 12 11.85C12.1962 11.8582 12.388 11.9106 12.5612 12.0032C12.7343 12.0959 12.8843 12.2264 13 12.385V11.5C12.7 11.165 12.5 10.91 12 10.91Z" fill="#E8F4FA" stroke="#45413C" stroke-width="0.5" stroke-linecap="round" stroke-linejoin="round"/>
<path d="M0.5 11.37L3.945 4.94999C4.30443 4.28343 4.89197 3.76867 5.6 3.49999L6.9 2.99999C6.98358 2.96779 7.07427 2.95862 7.1626 2.97346C7.25093 2.98829 7.33365 3.02658 7.40212 3.08432C7.47059 3.14206 7.52229 3.21713 7.55182 3.30169C7.58136 3.38624 7.58763 3.47718 7.57 3.56499C7.47657 4.03148 7.23735 4.45623 6.88687 4.77796C6.53639 5.09968 6.09277 5.30174 5.62 5.35499C5.42956 5.37519 5.24728 5.44304 5.08999 5.55227C4.93269 5.66151 4.80545 5.80861 4.72 5.97999L1.5 12.41L0.5 11.37ZM23.5 11.37L20.055 4.94999C19.6956 4.28343 19.108 3.76867 18.4 3.49999L17.1 2.99999C17.0164 2.96779 16.9257 2.95862 16.8374 2.97346C16.7491 2.98829 16.6664 3.02658 16.5979 3.08432C16.5294 3.14206 16.4777 3.21713 16.4482 3.30169C16.4186 3.38624 16.4124 3.47718 16.43 3.56499C16.5234 4.03148 16.7626 4.45623 17.1131 4.77796C17.4636 5.09968 17.9072 5.30174 18.38 5.35499C18.5704 5.37519 18.7527 5.44304 18.91 5.55227C19.0673 5.66151 19.1946 5.80861 19.28 5.97999L22.5 12.41L23.5 11.37Z" fill="#87898C"/>
<path d="M3.945 6.00003C4.29678 5.31608 4.88486 4.78308 5.6 4.50003L6.9 4.00003C6.98206 3.96629 7.07162 3.95499 7.15948 3.96729C7.24735 3.97959 7.33036 4.01505 7.4 4.07003C7.48445 3.90041 7.54663 3.72059 7.585 3.53503C7.59783 3.44767 7.58729 3.35846 7.55445 3.27649C7.52162 3.19452 7.46766 3.1227 7.39807 3.06835C7.32848 3.01399 7.24573 2.97904 7.15824 2.96704C7.07076 2.95504 6.98166 2.96643 6.9 3.00003L5.6 3.50003C4.89313 3.77065 4.3062 4.28488 3.945 4.95003L0.5 11.37L0.855 11.74L3.945 6.00003ZM16.615 4.09003C16.6846 4.03505 16.7676 3.99959 16.8555 3.98729C16.9434 3.97499 17.0329 3.98629 17.115 4.02003L18.415 4.52003C19.1212 4.80115 19.7031 5.3263 20.055 6.00003L23.145 11.76L23.5 11.39L20.055 4.95003C19.6938 4.28488 19.1069 3.77065 18.4 3.50003L17.1 3.00003C17.0164 2.96783 16.9257 2.95866 16.8374 2.9735C16.7491 2.98833 16.6664 3.02662 16.5979 3.08436C16.5294 3.1421 16.4777 3.21717 16.4482 3.30173C16.4186 3.38628 16.4124 3.47722 16.43 3.56503C16.4692 3.74716 16.5314 3.92357 16.615 4.09003Z" fill="#BDBEC0"/>
<path d="M0.5 11.37L3.945 4.94999C4.30443 4.28343 4.89197 3.76867 5.6 3.49999L6.9 2.99999C6.98358 2.96779 7.07427 2.95862 7.1626 2.97346C7.25093 2.98829 7.33365 3.02658 7.40212 3.08432C7.47059 3.14206 7.52229 3.21713 7.55182 3.30169C7.58136 3.38624 7.58763 3.47718 7.57 3.56499C7.47657 4.03148 7.23735 4.45623 6.88687 4.77796C6.53639 5.09968 6.09277 5.30174 5.62 5.35499C5.42956 5.37519 5.24728 5.44304 5.08999 5.55227C4.93269 5.66151 4.80545 5.80861 4.72 5.97999L1.5 12.41L0.5 11.37ZM23.5 11.37L20.055 4.94999C19.6956 4.28343 19.108 3.76867 18.4 3.49999L17.1 2.99999C17.0164 2.96779 16.9257 2.95862 16.8374 2.97346C16.7491 2.98829 16.6664 3.02658 16.5979 3.08432C16.5294 3.14206 16.4777 3.21713 16.4482 3.30169C16.4186 3.38624 16.4124 3.47718 16.43 3.56499C16.5234 4.03148 16.7626 4.45623 17.1131 4.77796C17.4636 5.09968 17.9072 5.30174 18.38 5.35499C18.5704 5.37519 18.7527 5.44304 18.91 5.55227C19.0673 5.66151 19.1946 5.80861 19.28 5.97999L22.5 12.41L23.5 11.37Z" stroke="#45413C" stroke-width="0.5" stroke-linecap="round" stroke-linejoin="round"/>
<path d="M0.955027 10.91H2.25003V12.66H0.955027C0.834354 12.66 0.718623 12.6121 0.633294 12.5268C0.547965 12.4414 0.500027 12.3257 0.500027 12.205V11.37C0.499366 11.3099 0.510647 11.2502 0.533217 11.1944C0.555786 11.1386 0.589196 11.0878 0.631513 11.0451C0.67383 11.0023 0.724212 10.9683 0.779744 10.9451C0.835275 10.922 0.894853 10.91 0.955027 10.91ZM23.045 12.665H21.75V10.915H23.045C23.1657 10.915 23.2814 10.963 23.3668 11.0483C23.4521 11.1336 23.5 11.2494 23.5 11.37V12.205C23.5007 12.2652 23.4894 12.3249 23.4668 12.3807C23.4443 12.4365 23.4109 12.4872 23.3685 12.53C23.3262 12.5728 23.2758 12.6067 23.2203 12.6299C23.1648 12.6531 23.1052 12.665 23.045 12.665Z" fill="#E8F4FA" stroke="#45413C" stroke-width="0.5" stroke-linecap="round" stroke-linejoin="round"/>
<path d="M2 12.41C2 12.41 1.5 12.445 1.5 11.66C1.5 10.875 2.06 10.16 6.5 10.16C10.94 10.16 11.25 11.195 11.25 11.91C11.25 12.625 10.75 12.41 10.75 12.41H2ZM22 12.41C22 12.41 22.5 12.445 22.5 11.66C22.5 10.875 21.94 10.16 17.5 10.16C13.06 10.16 12.75 11.195 12.75 11.91C12.75 12.625 13.25 12.41 13.25 12.41H22Z" fill="#87898C"/>
<path d="M6.50005 11C10 11 10.94 11.65 11.17 12.275C11.2312 12.1563 11.2588 12.0232 11.25 11.89C11.25 11.175 10.94 10.14 6.50005 10.14C2.06005 10.14 1.50005 10.86 1.50005 11.64C1.49541 11.7918 1.5209 11.9431 1.57505 12.085C1.83505 11.5 2.87005 11 6.50005 11ZM17.5 11C21.13 11 22.165 11.5 22.425 12.085C22.4792 11.9431 22.5047 11.7918 22.5 11.64C22.5 10.86 21.94 10.14 17.5 10.14C13.06 10.14 12.75 11.175 12.75 11.89C12.7413 12.0232 12.7689 12.1563 12.83 12.275C13.06 11.67 14 11 17.5 11Z" fill="#BDBEC0"/>
<path d="M2 12.41C2 12.41 1.5 12.445 1.5 11.66C1.5 10.875 2.06 10.16 6.5 10.16C10.94 10.16 11.25 11.195 11.25 11.91C11.25 12.625 10.75 12.41 10.75 12.41H2ZM22 12.41C22 12.41 22.5 12.445 22.5 11.66C22.5 10.875 21.94 10.16 17.5 10.16C13.06 10.16 12.75 11.195 12.75 11.91C12.75 12.625 13.25 12.41 13.25 12.41H22Z" stroke="#45413C" stroke-width="0.5" stroke-linecap="round" stroke-linejoin="round"/>
<path d="M2.00002 12.41C3.38485 12.0377 4.81658 11.8692 6.25002 11.91C7.76509 11.8866 9.27705 12.0546 10.75 12.41C10.75 12.41 10.915 17.33 9.50002 18.16C8.08502 18.99 4.25002 19.16 3.00002 17.66C1.75002 16.16 2.00002 12.41 2.00002 12.41Z" fill="#00B8F0"/>
<path d="M9.46002 12.15C8.39774 11.988 7.32459 11.9078 6.25002 11.91C4.81658 11.8692 3.38485 12.0377 2.00002 12.41C2.00002 12.41 1.75002 16.16 3.00002 17.66C3.50002 18.29 4.50002 18.625 5.56502 18.74L9.46002 12.15Z" fill="#4ACFFF"/>
<path d="M2.00002 12.41C3.38485 12.0377 4.81658 11.8692 6.25002 11.91C7.76509 11.8866 9.27705 12.0546 10.75 12.41C10.75 12.41 10.915 17.33 9.50002 18.16C8.08502 18.99 4.25002 19.16 3.00002 17.66C1.75002 16.16 2.00002 12.41 2.00002 12.41Z" stroke="#45413C" stroke-width="0.5" stroke-linecap="round" stroke-linejoin="round"/>
<path d="M22 12.41C20.6152 12.0377 19.1835 11.8692 17.75 11.91C16.235 11.8866 14.723 12.0546 13.25 12.41C13.25 12.41 13.085 17.33 14.5 18.16C15.915 18.99 19.75 19.16 21 17.66C22.25 16.16 22 12.41 22 12.41Z" fill="#00B8F0"/>
<path d="M20.38 12.08C19.5081 11.9656 18.6295 11.9088 17.75 11.91C16.235 11.8866 14.723 12.0546 13.25 12.41C13.25 12.41 13.085 17.33 14.5 18.16C15.1071 18.4734 15.7695 18.6653 16.45 18.725L20.38 12.08Z" fill="#4ACFFF"/>
<path d="M22 12.41C20.6152 12.0377 19.1835 11.8692 17.75 11.91C16.235 11.8866 14.723 12.0546 13.25 12.41C13.25 12.41 13.085 17.33 14.5 18.16C15.915 18.99 19.75 19.16 21 17.66C22.25 16.16 22 12.41 22 12.41Z" stroke="#45413C" stroke-width="0.5" stroke-linecap="round" stroke-linejoin="round"/>
</svg>
