<svg width="18" height="18" viewBox="0 0 18 18" fill="none" xmlns="http://www.w3.org/2000/svg">
<path d="M8.5781 7.87372C8.52325 8.12965 8.39528 8.8384 8.36716 9.09575C8.3306 9.422 8.33622 9.86075 8.37279 10.2137C8.40091 10.4893 8.58653 11.6748 8.66528 12.174C8.68638 12.3076 8.61325 12.437 8.4881 12.4862C8.0845 12.6493 7.12544 13.0009 5.79794 13.2554C4.58716 13.4875 3.82216 13.5817 3.45653 13.6182C3.31028 13.6323 3.17669 13.5367 3.14575 13.3918C2.97138 12.5889 2.38779 9.99575 1.69591 8.0945C1.60732 7.85122 0.631379 4.94872 0.631379 4.94872C0.473879 4.51559 0.583566 4.09512 0.995597 3.92637C1.41888 3.752 1.73107 3.95028 1.88997 4.32575L2.53825 6.06809C2.56919 6.14122 2.63669 6.272 2.71263 6.2509C2.79419 6.227 2.81529 6.15528 2.79419 6.07512C2.65497 5.52809 2.08404 3.7309 2.01654 3.38637C1.92372 2.90965 2.06716 2.50887 2.5045 2.39497C2.94185 2.28106 3.32013 2.59325 3.41716 2.94903C3.51419 3.30481 4.20747 5.71512 4.20747 5.71512C4.26653 5.87825 4.42825 5.76434 4.41278 5.67856L3.82497 2.46106C3.70966 1.78747 4.06404 1.37965 4.50841 1.36137C4.8656 1.34731 5.25372 1.52168 5.36903 2.10668L5.93435 5.46622C5.97372 5.61387 6.10732 5.60262 6.09466 5.42825L5.90341 2.52856C5.86403 1.84231 6.15091 1.62434 6.51232 1.60184C7.05372 1.56809 7.27591 1.88168 7.32232 2.48497C7.34622 2.79856 7.57966 5.17653 7.57966 5.17653C7.58247 5.2145 7.58669 5.27778 7.58669 5.27778C7.74279 5.08793 7.94669 4.89668 8.27013 4.89247C8.56404 4.88825 8.80169 4.95293 8.94372 5.49856C9.06607 5.97528 8.72294 7.20153 8.5781 7.87372Z" fill="#82AEC0"/>
<path d="M6.71761 7.84546C6.65854 6.96937 6.74995 5.34655 7.55573 4.96265L7.58386 5.27624C7.09308 5.95265 6.94964 7.93546 6.93979 8.20968C6.92995 8.4853 6.75276 8.36437 6.71761 7.84546ZM4.05698 13.5422C4.05698 13.5422 3.83901 13.5155 3.72651 13.2131C3.61401 12.9108 3.3412 11.5397 3.32995 11.423C3.30604 11.1783 3.36933 11.1769 3.41011 11.1783C3.46354 11.1811 3.52683 11.2626 3.59011 11.5228C3.70261 11.9841 4.05698 13.5422 4.05698 13.5422ZM5.14823 13.3706C5.14823 13.3706 4.93026 13.3439 4.81776 13.0416C4.70526 12.7392 4.43948 11.4005 4.42683 11.2851C4.40011 11.0348 4.44651 11.0236 4.47604 11.0109C4.53229 10.987 4.60823 11.0489 4.68136 11.3512C4.79245 11.8125 5.14823 13.3706 5.14823 13.3706ZM6.13683 13.1723C6.13683 13.1723 5.91886 13.1456 5.80636 12.8433C5.71917 12.6098 5.49276 11.6423 5.41683 11.1642C5.38729 10.9772 5.41261 10.8295 5.49417 10.8281C5.53073 10.8267 5.58839 10.7859 5.67136 11.153C5.77401 11.6156 6.13683 13.1723 6.13683 13.1723ZM7.92979 12.6928C7.92979 12.6928 8.11401 12.5747 8.08589 12.2541C8.06339 12.0066 7.85667 11.032 7.72308 10.5666C7.70058 10.4892 7.63026 10.3176 7.53745 10.3416C7.44464 10.3655 7.44886 10.4639 7.49245 10.6678C7.58948 11.1305 7.92979 12.6928 7.92979 12.6928ZM6.89901 12.9853C6.89901 12.9853 7.08323 12.8672 7.05511 12.5466C7.03401 12.3075 6.84136 11.3976 6.70776 10.9153C6.66136 10.748 6.63604 10.6031 6.51792 10.6017C6.41667 10.6003 6.41808 10.762 6.46167 10.9603C6.50245 11.1586 6.89901 12.9853 6.89901 12.9853Z" fill="#2F7889"/>
<path d="M9.39519 11.2541C9.44862 11.51 9.56956 12.2202 9.59769 12.4775C9.63144 12.8038 9.62159 13.2425 9.58222 13.5955C9.55269 13.8543 9.37972 14.9146 9.29112 15.4546C9.27521 15.5476 9.29183 15.6433 9.33819 15.7255C9.38455 15.8077 9.45781 15.8714 9.54566 15.906C9.99284 16.0846 10.9041 16.4122 12.1346 16.6569C13.2975 16.8889 14.1132 16.9255 14.5392 16.9227C14.6352 16.9221 14.7279 16.8882 14.8018 16.827C14.8756 16.7657 14.9259 16.6808 14.9442 16.5866C15.1074 15.7344 15.5953 13.3593 16.2788 11.5297C16.3688 11.2878 17.3686 8.39238 17.3686 8.39238C17.5289 7.96066 17.4235 7.53879 17.0128 7.36722C16.591 7.19004 16.2774 7.38551 16.1142 7.75957L15.3661 9.58207C15.3352 9.65519 15.2789 9.67769 15.2382 9.66222C15.1974 9.64676 15.1946 9.60457 15.2171 9.52301C15.3605 8.97738 15.9216 7.05082 15.9919 6.70769C16.0749 6.3041 15.9244 5.92863 15.4885 5.81051C15.0525 5.69379 14.6897 5.93707 14.5899 6.29285C14.49 6.64863 13.7841 9.2291 13.7841 9.2291C13.7616 9.31629 13.5928 9.28816 13.628 9.14051L14.3199 5.85551C14.4253 5.20441 14.1708 4.8641 13.7124 4.77691C13.2553 4.68972 12.8813 4.89785 12.7674 5.54894C12.7674 5.54894 12.1725 8.85926 12.1514 8.94926C12.1247 9.05754 11.9602 9.04207 11.9869 8.90285L12.2485 5.83441C12.2611 5.21004 11.9321 4.99488 11.5285 4.98926C10.9646 4.98222 10.7396 5.38441 10.6917 5.93566C10.665 6.24926 10.4133 8.66519 10.4133 8.66519C10.4133 8.66519 10.1335 8.30519 9.76222 8.31504C9.58503 8.31926 9.15331 8.40926 9.12378 8.99707C9.09987 9.41332 9.25597 10.5819 9.39519 11.2541Z" fill="#82AEC0"/>
<path d="M9.98299 11.1853C9.85783 10.3007 10.0181 8.36572 10.0181 8.36572C10.2164 8.4051 10.4105 8.66525 10.4105 8.66525L10.2094 11.5649C10.2094 11.5649 10.0645 11.7618 9.98299 11.1853ZM10.1039 16.1043C10.1039 16.1043 9.91549 15.9932 9.93096 15.6712C9.94361 15.4124 10.1405 14.362 10.2502 13.9162C10.3135 13.6574 10.3908 13.6673 10.4245 13.6715C10.4836 13.6771 10.5244 13.7671 10.4738 14.0638C10.3936 14.5335 10.1039 16.1043 10.1039 16.1043ZM11.1853 16.4432C11.1853 16.4432 10.9969 16.3321 11.0124 16.0101C11.025 15.7513 11.2177 14.7037 11.3316 14.2579C11.3977 14.0006 11.475 14.0062 11.5088 14.0104C11.5664 14.0188 11.603 14.0835 11.5552 14.4028C11.482 14.8724 11.1853 16.4432 11.1853 16.4432ZM12.157 16.6612C12.157 16.6612 11.9686 16.5501 11.9841 16.2281C11.9967 15.9693 12.2569 14.6798 12.3033 14.4745C12.3497 14.2692 12.3947 14.1918 12.4678 14.2031C12.541 14.2143 12.586 14.272 12.5269 14.6207C12.4467 15.0904 12.157 16.6612 12.157 16.6612ZM13.9908 16.896C13.9908 16.896 14.2074 16.8595 14.3072 16.5543C14.3888 16.3054 14.5983 15.2437 14.6475 14.7937C14.6588 14.6882 14.6503 14.5012 14.5828 14.4843C14.5266 14.4703 14.4577 14.4885 14.386 14.8612C14.2988 15.3281 13.9908 16.896 13.9908 16.896ZM12.9488 16.7906C12.9488 16.7906 13.1653 16.754 13.2652 16.4488C13.365 16.1437 13.5914 14.7023 13.5999 14.5856C13.6111 14.414 13.5605 14.3676 13.4958 14.3831C13.4297 14.3971 13.3833 14.5659 13.3453 14.7571C13.2121 15.4347 13.0799 16.1126 12.9488 16.7906Z" fill="#2F7889"/>
</svg>
