<svg width="18" height="18" viewBox="0 0 18 18" fill="none" xmlns="http://www.w3.org/2000/svg">
<g clip-path="url(#clip0_26_5683)">
<path d="M11.5 17C11.5 17 10.5 16.5 9 16.5C7.5 16.5 6.5 17 6.5 17L6.9995 1H11.0005L11.5 17Z" fill="#9AAAB4"/>
<path d="M8.98901 0H9.48901C10.489 0 11.4895 1 11.4895 1C11.4895 1 13.103 1.637 14.603 2.137C16.103 2.637 18.014 11.2395 18 11.834C17.989 12.314 15.627 12.767 15.5125 12.4655C15.254 11.785 14.6535 9.8175 14.0975 7.0635C14.0975 12.5635 15.3055 16.917 15.3055 16.917C15.3055 16.917 12.489 18 10.989 18C10.489 16 10.4895 9.5 10.4895 8C10.4895 6.5 8.98901 0 8.98901 0Z" fill="#E1E8ED"/>
<path d="M8.99996 0H8.49996C7.49996 0 6.49946 1 6.49946 1C6.49946 1 4.88596 1.637 3.38596 2.137C1.88596 2.637 -0.0245373 11.2395 -0.0110373 11.834C-3.72538e-05 12.314 2.36196 12.767 2.47596 12.4655C2.73446 11.785 3.33446 9.969 3.89096 7.0635C3.89096 12.5635 2.68296 16.917 2.68296 16.917C2.68296 16.917 5.49996 18 6.99996 18C7.49996 16 7.49946 9.5 7.49946 8C7.49946 6.5 8.99996 0 8.99996 0Z" fill="#E1E8ED"/>
<path d="M12.001 2C12.001 2 10.5 0 9.49996 0H8.49996C7.49996 0 5.99896 2 5.99896 2L6.99945 2.5L5.99896 3L7.49945 8.002H10.5005L12.001 3L11.0005 2.5L12.001 2ZM6.08996 14.0835C5.82146 14.1145 4.75596 13.9585 4.54796 13.8545C4.26546 13.713 4.22396 13.547 4.25646 13.2505C4.28896 12.9535 4.41196 12.5785 4.46896 11.5005C4.92346 11.709 5.94445 11.7715 6.73645 11.792C6.73645 12.698 6.57046 13.5005 6.57046 13.5005C6.53596 13.775 6.35846 14.052 6.08996 14.0835ZM11.91 14.0835C12.1785 14.1145 13.2435 13.9585 13.452 13.8545C13.7345 13.713 13.776 13.547 13.7435 13.2505C13.711 12.9535 13.588 12.5785 13.531 11.5005C13.0765 11.709 12.0555 11.7715 11.2635 11.792C11.2635 12.698 11.4295 13.5005 11.4295 13.5005C11.464 13.775 11.6415 14.052 11.91 14.0835Z" fill="#F5F8FA"/>
<path d="M11.7815 7.917C11.8792 7.917 11.9585 7.46458 11.9585 6.9065C11.9585 6.34841 11.8792 5.896 11.7815 5.896C11.6837 5.896 11.6045 6.34841 11.6045 6.9065C11.6045 7.46458 11.6837 7.917 11.7815 7.917Z" fill="#BB1A34"/>
<path d="M12.2815 7.917C12.3792 7.917 12.4585 7.46458 12.4585 6.9065C12.4585 6.34841 12.3792 5.896 12.2815 5.896C12.1837 5.896 12.1045 6.34841 12.1045 6.9065C12.1045 7.46458 12.1837 7.917 12.2815 7.917Z" fill="#4289C1"/>
<path d="M12.9591 8.4585C12.7641 8.535 11.8546 8.542 11.6046 8.4375C11.3546 8.3335 11.2606 8.2185 11.2401 7.927C11.2196 7.6355 11.2711 6.5 11.2711 6.5H13.2506C13.2506 6.5 13.3131 7.3125 13.3131 8C13.3136 8.2925 13.1861 8.3695 12.9591 8.4585Z" fill="#F5F8FA"/>
<path d="M10.5005 1.75H7.49951V1.25C7.49951 0.984784 7.60487 0.73043 7.79241 0.542893C7.97994 0.355357 8.2343 0.25 8.49951 0.25H9.50051C9.76573 0.25 10.0201 0.355357 10.2076 0.542893C10.3952 0.73043 10.5005 0.984784 10.5005 1.25V1.75Z" fill="#CCD6DD"/>
<path d="M10.5005 15.856H7.49951V1.75049C7.49951 1.48527 7.60487 1.23092 7.79241 1.04338C7.97994 0.855845 8.2343 0.750488 8.49951 0.750488H9.50051C9.76573 0.750488 10.0201 0.855845 10.2076 1.04338C10.3952 1.23092 10.5005 1.48527 10.5005 1.75049V15.856Z" fill="#9AAAB4"/>
</g>
<defs>
<clipPath id="clip0_26_5683">
<rect width="18" height="18" fill="white"/>
</clipPath>
</defs>
</svg>
