<svg width="24" height="24" viewBox="0 0 24 24" fill="none" xmlns="http://www.w3.org/2000/svg">
<path d="M6.82645 2.37974C6.85226 2.15075 6.96151 1.93928 7.13333 1.78572C7.30515 1.63216 7.52751 1.54727 7.75795 1.54724H16.2697C16.7572 1.54724 17.1637 1.92074 17.2042 2.40674L17.2792 3.31649H6.7207L6.82645 2.37974Z" fill="url(#paint0_linear_26_4342)"/>
<path d="M6.82645 2.37974C6.85226 2.15075 6.96151 1.93928 7.13333 1.78572C7.30515 1.63216 7.52751 1.54727 7.75795 1.54724H16.2697C16.7572 1.54724 17.1637 1.92074 17.2042 2.40674L17.2792 3.31649H6.7207L6.82645 2.37974Z" fill="url(#paint1_linear_26_4342)"/>
<path d="M6.82645 2.37974C6.85226 2.15075 6.96151 1.93928 7.13333 1.78572C7.30515 1.63216 7.52751 1.54727 7.75795 1.54724H16.2697C16.7572 1.54724 17.1637 1.92074 17.2042 2.40674L17.2792 3.31649H6.7207L6.82645 2.37974Z" fill="url(#paint2_radial_26_4342)"/>
<path d="M6.70872 3.44543L5.02722 20.3549L9.52122 20.9527C10.0665 17.0377 11.2147 9.08093 11.304 8.56568C11.4165 7.92068 11.8215 7.92068 12.1042 7.92068C12.33 7.92068 12.3945 7.73318 12.3982 7.64018V3.44543H6.70872Z" fill="url(#paint3_linear_26_4342)"/>
<path d="M6.70872 3.44543L5.02722 20.3549L9.52122 20.9527C10.0665 17.0377 11.2147 9.08093 11.304 8.56568C11.4165 7.92068 11.8215 7.92068 12.1042 7.92068C12.33 7.92068 12.3945 7.73318 12.3982 7.64018V3.44543H6.70872Z" fill="url(#paint4_radial_26_4342)"/>
<path d="M6.70872 3.44543L5.02722 20.3549L9.52122 20.9527C10.0665 17.0377 11.2147 9.08093 11.304 8.56568C11.4165 7.92068 11.8215 7.92068 12.1042 7.92068C12.33 7.92068 12.3945 7.73318 12.3982 7.64018V3.44543H6.70872Z" fill="url(#paint5_radial_26_4342)"/>
<path d="M12.6239 8.637C12.6052 8.51475 12.4912 8.406 12.4364 8.367L12.6239 3.46875H17.1704L18.8347 20.2388L14.3699 20.9295C13.7954 16.8825 12.6427 8.7585 12.6239 8.637Z" fill="url(#paint6_linear_26_4342)"/>
<path d="M12.6239 8.637C12.6052 8.51475 12.4912 8.406 12.4364 8.367L12.6239 3.46875H17.1704L18.8347 20.2388L14.3699 20.9295C13.7954 16.8825 12.6427 8.7585 12.6239 8.637Z" fill="url(#paint7_linear_26_4342)"/>
<path d="M12.6239 8.637C12.6052 8.51475 12.4912 8.406 12.4364 8.367L12.6239 3.46875H17.1704L18.8347 20.2388L14.3699 20.9295C13.7954 16.8825 12.6427 8.7585 12.6239 8.637Z" fill="url(#paint8_linear_26_4342)"/>
<path d="M17.4803 6.5895C16.8156 6.41304 16.2402 5.9961 15.8655 5.41951C15.4908 4.84292 15.3436 4.14775 15.4523 3.46875H17.1705L17.4803 6.5895Z" fill="url(#paint9_linear_26_4342)"/>
<path d="M17.4803 6.5895C16.8156 6.41304 16.2402 5.9961 15.8655 5.41951C15.4908 4.84292 15.3436 4.14775 15.4523 3.46875H17.1705L17.4803 6.5895Z" fill="url(#paint10_linear_26_4342)"/>
<g filter="url(#filter0_i_26_4342)">
<path d="M11.3002 8.58979L11.3039 8.56654C11.4164 7.92154 11.8214 7.92154 12.1042 7.92154C12.3299 7.92154 12.3944 7.73404 12.3982 7.64104V3.64429H13.1189V7.83979C13.1189 8.0387 13.0399 8.22946 12.8993 8.37012C12.7586 8.51077 12.5678 8.58979 12.3689 8.58979H11.3002Z" fill="url(#paint11_linear_26_4342)"/>
<path d="M11.3002 8.58979L11.3039 8.56654C11.4164 7.92154 11.8214 7.92154 12.1042 7.92154C12.3299 7.92154 12.3944 7.73404 12.3982 7.64104V3.64429H13.1189V7.83979C13.1189 8.0387 13.0399 8.22946 12.8993 8.37012C12.7586 8.51077 12.5678 8.58979 12.3689 8.58979H11.3002Z" fill="url(#paint12_linear_26_4342)"/>
</g>
<g filter="url(#filter1_i_26_4342)">
<path d="M12.0173 2.69479C12.2484 2.69479 12.4358 2.50742 12.4358 2.27629C12.4358 2.04516 12.2484 1.85779 12.0173 1.85779C11.7861 1.85779 11.5988 2.04516 11.5988 2.27629C11.5988 2.50742 11.7861 2.69479 12.0173 2.69479Z" fill="url(#paint13_radial_26_4342)"/>
</g>
<g filter="url(#filter2_i_26_4342)">
<path d="M14.2575 21.4364C14.2428 21.3389 14.2475 21.2395 14.2713 21.1438C14.2951 21.0481 14.3376 20.958 14.3962 20.8787C14.4549 20.7994 14.5286 20.7325 14.6132 20.6818C14.6977 20.631 14.7915 20.5974 14.889 20.5829L18.5693 20.0407C18.6672 20.0263 18.767 20.0314 18.863 20.0558C18.959 20.0802 19.0492 20.1233 19.1284 20.1827C19.2076 20.2421 19.2742 20.3166 19.3245 20.4019C19.3748 20.4872 19.4076 20.5816 19.4213 20.6797L19.4888 21.1604C19.5025 21.2594 19.4964 21.3601 19.4707 21.4566C19.445 21.5532 19.4002 21.6436 19.3391 21.7226C19.278 21.8017 19.2017 21.8677 19.1147 21.9168C19.0277 21.9659 18.9317 21.9972 18.8325 22.0087L15.141 22.4392C14.9476 22.4618 14.753 22.4083 14.5984 22.29C14.4437 22.1718 14.3411 21.998 14.3123 21.8054L14.2575 21.4364Z" fill="url(#paint14_linear_26_4342)"/>
<path d="M14.2575 21.4364C14.2428 21.3389 14.2475 21.2395 14.2713 21.1438C14.2951 21.0481 14.3376 20.958 14.3962 20.8787C14.4549 20.7994 14.5286 20.7325 14.6132 20.6818C14.6977 20.631 14.7915 20.5974 14.889 20.5829L18.5693 20.0407C18.6672 20.0263 18.767 20.0314 18.863 20.0558C18.959 20.0802 19.0492 20.1233 19.1284 20.1827C19.2076 20.2421 19.2742 20.3166 19.3245 20.4019C19.3748 20.4872 19.4076 20.5816 19.4213 20.6797L19.4888 21.1604C19.5025 21.2594 19.4964 21.3601 19.4707 21.4566C19.445 21.5532 19.4002 21.6436 19.3391 21.7226C19.278 21.8017 19.2017 21.8677 19.1147 21.9168C19.0277 21.9659 18.9317 21.9972 18.8325 22.0087L15.141 22.4392C14.9476 22.4618 14.753 22.4083 14.5984 22.29C14.4437 22.1718 14.3411 21.998 14.3123 21.8054L14.2575 21.4364Z" fill="url(#paint15_linear_26_4342)"/>
</g>
<g filter="url(#filter3_i_26_4342)">
<path d="M9.77845 21.4364C9.79312 21.3389 9.7884 21.2394 9.76454 21.1436C9.74069 21.0479 9.69818 20.9578 9.63945 20.8785C9.58071 20.7992 9.50691 20.7323 9.42227 20.6816C9.33763 20.6309 9.24381 20.5973 9.1462 20.5829L5.46595 20.0407C5.36799 20.0263 5.26816 20.0314 5.1722 20.0558C5.07623 20.0802 4.98605 20.1233 4.90684 20.1827C4.82763 20.2421 4.76097 20.3166 4.7107 20.4019C4.66043 20.4872 4.62755 20.5816 4.61395 20.6797L4.54645 21.1604C4.53269 21.2594 4.53885 21.3601 4.56455 21.4566C4.59025 21.5532 4.63498 21.6436 4.69611 21.7226C4.75724 21.8017 4.83354 21.8677 4.92054 21.9168C5.00753 21.9659 5.10346 21.9972 5.2027 22.0087L8.8942 22.4392C9.08758 22.4618 9.28217 22.4083 9.43682 22.29C9.59148 22.1718 9.69409 21.998 9.72295 21.8054L9.77845 21.4364Z" fill="url(#paint16_linear_26_4342)"/>
</g>
<g filter="url(#filter4_i_26_4342)">
<path fill-rule="evenodd" clip-rule="evenodd" d="M17.7877 6.93746C17.7888 6.94937 17.7871 6.96139 17.7827 6.97251C17.7783 6.98363 17.7713 6.99353 17.7623 7.00139C17.7532 7.00924 17.7424 7.01482 17.7308 7.01766C17.7192 7.0205 17.7071 7.02052 17.6954 7.01771C15.4087 6.44921 14.9932 4.61696 15.0262 3.72296C15.0265 3.71313 15.0289 3.70348 15.0331 3.6946C15.0373 3.68571 15.0433 3.67776 15.0506 3.67124C15.058 3.66473 15.0666 3.65977 15.0759 3.65667C15.0853 3.65357 15.0951 3.65239 15.1049 3.65321L15.7034 3.69446C15.7232 3.69599 15.7417 3.70511 15.755 3.71992C15.7683 3.73473 15.7753 3.75408 15.7747 3.77396C15.7559 4.44446 16.0604 5.74496 17.5777 6.20021C17.6138 6.21071 17.6462 6.23145 17.6708 6.25994C17.6954 6.28842 17.7113 6.32341 17.7164 6.36071L17.7877 6.93746Z" fill="#578DEA"/>
</g>
<g filter="url(#filter5_ii_26_4342)">
<path fill-rule="evenodd" clip-rule="evenodd" d="M6.22495 6.93752C6.22382 6.94935 6.22551 6.96129 6.22989 6.97234C6.23427 6.98339 6.24122 6.99324 6.25016 7.00107C6.25909 7.00891 6.26976 7.01451 6.28129 7.01742C6.29282 7.02032 6.30487 7.02044 6.31645 7.01777C8.6032 6.44927 9.0187 4.61702 8.98645 3.72302C8.98609 3.71313 8.98371 3.70341 8.97946 3.69447C8.97521 3.68553 8.96917 3.67755 8.96173 3.67102C8.95429 3.66449 8.94559 3.65955 8.93617 3.6565C8.92675 3.65344 8.91681 3.65235 8.90695 3.65327L8.30845 3.69452C8.28863 3.69606 8.27016 3.70518 8.25689 3.71998C8.24361 3.73479 8.23656 3.75415 8.2372 3.77402C8.25595 4.44452 7.95145 5.74502 6.4342 6.20027C6.39805 6.21078 6.36571 6.23152 6.34109 6.26C6.31647 6.28848 6.30062 6.32348 6.29545 6.36077L6.22495 6.93752Z" fill="#2364D0"/>
</g>
<path d="M6.68623 3.13568C6.6886 3.11766 6.69743 3.1011 6.71109 3.0891C6.72475 3.07709 6.7423 3.07046 6.76048 3.07043H17.2747C17.2929 3.07046 17.3105 3.07709 17.3241 3.0891C17.3378 3.1011 17.3466 3.11766 17.349 3.13568L17.424 3.73568C17.4254 3.74632 17.4245 3.75713 17.4213 3.76739C17.4182 3.77764 17.4129 3.78711 17.4058 3.79514C17.3987 3.80317 17.3899 3.80959 17.3801 3.81395C17.3703 3.81831 17.3597 3.82053 17.349 3.82043H6.68623C6.67551 3.82053 6.66489 3.81831 6.65509 3.81395C6.64529 3.80959 6.63654 3.80317 6.62943 3.79514C6.62232 3.78711 6.61702 3.77764 6.61388 3.76739C6.61074 3.75713 6.60984 3.74632 6.61123 3.73568L6.68623 3.13568Z" fill="#3A82E1"/>
<defs>
<filter id="filter0_i_26_4342" x="11.3002" y="3.64429" width="1.89373" height="4.94556" filterUnits="userSpaceOnUse" color-interpolation-filters="sRGB">
<feFlood flood-opacity="0" result="BackgroundImageFix"/>
<feBlend mode="normal" in="SourceGraphic" in2="BackgroundImageFix" result="shape"/>
<feColorMatrix in="SourceAlpha" type="matrix" values="0 0 0 0 0 0 0 0 0 0 0 0 0 0 0 0 0 0 127 0" result="hardAlpha"/>
<feOffset dx="0.075"/>
<feGaussianBlur stdDeviation="0.0625"/>
<feComposite in2="hardAlpha" operator="arithmetic" k2="-1" k3="1"/>
<feColorMatrix type="matrix" values="0 0 0 0 0.129412 0 0 0 0 0.345098 0 0 0 0 0.776471 0 0 0 1 0"/>
<feBlend mode="normal" in2="shape" result="effect1_innerShadow_26_4342"/>
</filter>
<filter id="filter1_i_26_4342" x="11.5988" y="1.80779" width="0.887036" height="0.887036" filterUnits="userSpaceOnUse" color-interpolation-filters="sRGB">
<feFlood flood-opacity="0" result="BackgroundImageFix"/>
<feBlend mode="normal" in="SourceGraphic" in2="BackgroundImageFix" result="shape"/>
<feColorMatrix in="SourceAlpha" type="matrix" values="0 0 0 0 0 0 0 0 0 0 0 0 0 0 0 0 0 0 127 0" result="hardAlpha"/>
<feOffset dx="0.05" dy="-0.05"/>
<feGaussianBlur stdDeviation="0.075"/>
<feComposite in2="hardAlpha" operator="arithmetic" k2="-1" k3="1"/>
<feColorMatrix type="matrix" values="0 0 0 0 0.117647 0 0 0 0 0.345098 0 0 0 0 0.8 0 0 0 1 0"/>
<feBlend mode="normal" in2="shape" result="effect1_innerShadow_26_4342"/>
</filter>
<filter id="filter2_i_26_4342" x="14.2491" y="20.0327" width="5.2967" height="2.4615" filterUnits="userSpaceOnUse" color-interpolation-filters="sRGB">
<feFlood flood-opacity="0" result="BackgroundImageFix"/>
<feBlend mode="normal" in="SourceGraphic" in2="BackgroundImageFix" result="shape"/>
<feColorMatrix in="SourceAlpha" type="matrix" values="0 0 0 0 0 0 0 0 0 0 0 0 0 0 0 0 0 0 127 0" result="hardAlpha"/>
<feOffset dx="0.05" dy="0.05"/>
<feGaussianBlur stdDeviation="0.1"/>
<feComposite in2="hardAlpha" operator="arithmetic" k2="-1" k3="1"/>
<feColorMatrix type="matrix" values="0 0 0 0 0.101961 0 0 0 0 0.360784 0 0 0 0 0.764706 0 0 0 1 0"/>
<feBlend mode="normal" in2="shape" result="effect1_innerShadow_26_4342"/>
</filter>
<filter id="filter3_i_26_4342" x="4.53931" y="20.0327" width="5.29744" height="2.4615" filterUnits="userSpaceOnUse" color-interpolation-filters="sRGB">
<feFlood flood-opacity="0" result="BackgroundImageFix"/>
<feBlend mode="normal" in="SourceGraphic" in2="BackgroundImageFix" result="shape"/>
<feColorMatrix in="SourceAlpha" type="matrix" values="0 0 0 0 0 0 0 0 0 0 0 0 0 0 0 0 0 0 127 0" result="hardAlpha"/>
<feOffset dx="0.05" dy="0.05"/>
<feGaussianBlur stdDeviation="0.125"/>
<feComposite in2="hardAlpha" operator="arithmetic" k2="-1" k3="1"/>
<feColorMatrix type="matrix" values="0 0 0 0 0.129412 0 0 0 0 0.278431 0 0 0 0 0.67451 0 0 0 1 0"/>
<feBlend mode="normal" in2="shape" result="effect1_innerShadow_26_4342"/>
</filter>
<filter id="filter4_i_26_4342" x="15.0244" y="3.55295" width="2.86367" height="3.46682" filterUnits="userSpaceOnUse" color-interpolation-filters="sRGB">
<feFlood flood-opacity="0" result="BackgroundImageFix"/>
<feBlend mode="normal" in="SourceGraphic" in2="BackgroundImageFix" result="shape"/>
<feColorMatrix in="SourceAlpha" type="matrix" values="0 0 0 0 0 0 0 0 0 0 0 0 0 0 0 0 0 0 127 0" result="hardAlpha"/>
<feOffset dx="0.1" dy="-0.1"/>
<feGaussianBlur stdDeviation="0.075"/>
<feComposite in2="hardAlpha" operator="arithmetic" k2="-1" k3="1"/>
<feColorMatrix type="matrix" values="0 0 0 0 0.2 0 0 0 0 0.407843 0 0 0 0 0.898039 0 0 0 1 0"/>
<feBlend mode="normal" in2="shape" result="effect1_innerShadow_26_4342"/>
</filter>
<filter id="filter5_ii_26_4342" x="6.17461" y="3.57795" width="2.86355" height="3.5417" filterUnits="userSpaceOnUse" color-interpolation-filters="sRGB">
<feFlood flood-opacity="0" result="BackgroundImageFix"/>
<feBlend mode="normal" in="SourceGraphic" in2="BackgroundImageFix" result="shape"/>
<feColorMatrix in="SourceAlpha" type="matrix" values="0 0 0 0 0 0 0 0 0 0 0 0 0 0 0 0 0 0 127 0" result="hardAlpha"/>
<feOffset dx="0.05" dy="0.1"/>
<feGaussianBlur stdDeviation="0.0625"/>
<feComposite in2="hardAlpha" operator="arithmetic" k2="-1" k3="1"/>
<feColorMatrix type="matrix" values="0 0 0 0 0.141176 0 0 0 0 0.286275 0 0 0 0 0.631373 0 0 0 1 0"/>
<feBlend mode="normal" in2="shape" result="effect1_innerShadow_26_4342"/>
<feColorMatrix in="SourceAlpha" type="matrix" values="0 0 0 0 0 0 0 0 0 0 0 0 0 0 0 0 0 0 127 0" result="hardAlpha"/>
<feOffset dx="-0.05" dy="-0.1"/>
<feGaussianBlur stdDeviation="0.0375"/>
<feComposite in2="hardAlpha" operator="arithmetic" k2="-1" k3="1"/>
<feColorMatrix type="matrix" values="0 0 0 0 0.168627 0 0 0 0 0.427451 0 0 0 0 0.839216 0 0 0 1 0"/>
<feBlend mode="normal" in2="effect1_innerShadow_26_4342" result="effect2_innerShadow_26_4342"/>
</filter>
<linearGradient id="paint0_linear_26_4342" x1="12" y1="1.54724" x2="12" y2="2.22674" gradientUnits="userSpaceOnUse">
<stop stop-color="#50A2C2"/>
<stop offset="1" stop-color="#58B4E7"/>
</linearGradient>
<linearGradient id="paint1_linear_26_4342" x1="6.7207" y1="3.16424" x2="8.36095" y2="2.83574" gradientUnits="userSpaceOnUse">
<stop stop-color="#3889C2"/>
<stop offset="1" stop-color="#3889C2" stop-opacity="0"/>
</linearGradient>
<radialGradient id="paint2_radial_26_4342" cx="0" cy="0" r="1" gradientUnits="userSpaceOnUse" gradientTransform="translate(16.47 2.60174) rotate(104.3) scale(1.23353 0.68793)">
<stop stop-color="#7ECCF4"/>
<stop offset="1" stop-color="#7ECCF4" stop-opacity="0"/>
</radialGradient>
<linearGradient id="paint3_linear_26_4342" x1="8.71272" y1="16.6874" x2="5.50197" y2="16.2187" gradientUnits="userSpaceOnUse">
<stop stop-color="#5EAEFF"/>
<stop offset="0.883" stop-color="#337FDB"/>
</linearGradient>
<radialGradient id="paint4_radial_26_4342" cx="0" cy="0" r="1" gradientUnits="userSpaceOnUse" gradientTransform="translate(12.3982 3.70343) rotate(116.37) scale(4.6564 6.71615)">
<stop stop-color="#59ADF3"/>
<stop offset="1" stop-color="#59ADF3" stop-opacity="0"/>
</radialGradient>
<radialGradient id="paint5_radial_26_4342" cx="0" cy="0" r="1" gradientUnits="userSpaceOnUse" gradientTransform="translate(10.7287 15.4454) rotate(-170.754) scale(1.02108 10.5535)">
<stop offset="0.156" stop-color="#3087E9"/>
<stop offset="0.948" stop-color="#3087E9" stop-opacity="0"/>
</radialGradient>
<linearGradient id="paint6_linear_26_4342" x1="13.0252" y1="13.5233" x2="16.6297" y2="12.9585" gradientUnits="userSpaceOnUse">
<stop offset="0.189" stop-color="#367FEC"/>
<stop offset="1" stop-color="#6ABEFF"/>
</linearGradient>
<linearGradient id="paint7_linear_26_4342" x1="14.6422" y1="3.46875" x2="15.2984" y2="8.4375" gradientUnits="userSpaceOnUse">
<stop stop-color="#5CB2F5"/>
<stop offset="1" stop-color="#5CB2F5" stop-opacity="0"/>
</linearGradient>
<linearGradient id="paint8_linear_26_4342" x1="18.7079" y1="16.92" x2="17.9932" y2="16.9628" gradientUnits="userSpaceOnUse">
<stop stop-color="#4EADEA"/>
<stop offset="1" stop-color="#4EADEA" stop-opacity="0"/>
</linearGradient>
<linearGradient id="paint9_linear_26_4342" x1="15.894" y1="5.577" x2="17.2575" y2="5.02875" gradientUnits="userSpaceOnUse">
<stop stop-color="#6DC2FD"/>
<stop offset="1" stop-color="#6DC2FD" stop-opacity="0"/>
</linearGradient>
<linearGradient id="paint10_linear_26_4342" x1="17.4143" y1="5.6775" x2="16.9043" y2="5.754" gradientUnits="userSpaceOnUse">
<stop offset="0.258" stop-color="#60BBEB"/>
<stop offset="1" stop-color="#5FBBEC" stop-opacity="0"/>
</linearGradient>
<linearGradient id="paint11_linear_26_4342" x1="12.2099" y1="3.64429" x2="12.2099" y2="8.58979" gradientUnits="userSpaceOnUse">
<stop stop-color="#3371DB"/>
<stop offset="1" stop-color="#355CD5"/>
</linearGradient>
<linearGradient id="paint12_linear_26_4342" x1="13.4234" y1="5.44954" x2="12.5917" y2="5.48479" gradientUnits="userSpaceOnUse">
<stop offset="0.234" stop-color="#4783E5"/>
<stop offset="1" stop-color="#4783E5" stop-opacity="0"/>
</linearGradient>
<radialGradient id="paint13_radial_26_4342" cx="0" cy="0" r="1" gradientUnits="userSpaceOnUse" gradientTransform="translate(12.2873 2.02729) rotate(124.756) scale(0.69891 0.615798)">
<stop offset="0.283" stop-color="#4383D8"/>
<stop offset="1" stop-color="#3368D2"/>
</radialGradient>
<linearGradient id="paint14_linear_26_4342" x1="18.6038" y1="21.2384" x2="14.9475" y2="21.7972" gradientUnits="userSpaceOnUse">
<stop stop-color="#4483F1"/>
<stop offset="1" stop-color="#2C55E2"/>
</linearGradient>
<linearGradient id="paint15_linear_26_4342" x1="17.9235" y1="22.0784" x2="17.877" y2="21.6562" gradientUnits="userSpaceOnUse">
<stop stop-color="#365CF2"/>
<stop offset="1" stop-color="#365CF2" stop-opacity="0"/>
</linearGradient>
<linearGradient id="paint16_linear_26_4342" x1="9.7867" y1="21.5159" x2="4.70545" y2="20.8357" gradientUnits="userSpaceOnUse">
<stop stop-color="#4082FB"/>
<stop offset="1" stop-color="#214DB5"/>
</linearGradient>
</defs>
</svg>
