<svg width="18" height="18" viewBox="0 0 18 18" fill="none" xmlns="http://www.w3.org/2000/svg">
<g clip-path="url(#clip0_33_937)">
<path d="M17.475 4.97505L14.4 1.90005C14.075 1.52505 13.625 1.30005 13.1 1.30005H4.90002C4.37502 1.30005 3.90002 1.52505 3.60002 1.90005L0.500024 4.97505C0.325024 5.15005 0.325024 5.45005 0.500024 5.62505L2.70002 7.82505C2.87502 8.00005 3.17502 8.00005 3.35002 7.82505L3.85002 7.32505V16.8C3.85002 17.1 5.20002 17.975 8.95002 17.975C12.7 17.975 14.05 17.1 14.05 16.8V7.25005L14.625 7.82505C14.8 8.00005 15.1 8.00005 15.275 7.82505L17.475 5.62505C17.65 5.47505 17.65 5.17505 17.475 4.97505Z" fill="#76DFFF"/>
<path d="M7.47502 1.125H10.425C10.875 1.125 11.25 1.4 11.25 1.75V2.15C11.25 2.5 9.65002 4.2 9.20002 4.2H8.70002C8.25002 4.2 6.65002 2.475 6.65002 2.15V1.75C6.67502 1.4 7.02502 1.125 7.47502 1.125Z" fill="#0096D1"/>
<path d="M11.55 0.349902C9.74995 -0.125098 8.19995 -0.125098 6.39995 0.349902C6.34995 0.374902 6.32495 1.1999 6.42495 1.5499C6.44995 1.5999 6.49995 1.6249 6.54995 1.6249C8.14995 1.1999 9.79995 1.1999 11.4 1.6249C11.45 1.6499 11.5 1.5999 11.525 1.5499C11.625 1.1999 11.625 0.374902 11.55 0.349902Z" fill="#0074A8"/>
<path d="M3.72498 7.57506L3.09998 8.22506C3.09998 8.25006 3.07498 8.25006 3.04998 8.25006C3.02498 8.25006 2.99998 8.25006 2.99998 8.22506C2.99998 8.22506 2.37498 8.02506 1.37498 7.00006C0.374976 5.97506 0.149976 5.45006 0.149976 5.45006C0.124976 5.42506 0.124976 5.37506 0.149976 5.32506L0.774976 4.67506C0.799976 4.65006 0.824976 4.65006 0.824976 4.65006C0.849976 4.65006 0.874976 4.65006 0.874976 4.67506C0.874976 4.67506 1.17498 5.32506 2.07498 6.22506C2.97498 7.12506 3.72498 7.45006 3.72498 7.45006C3.77498 7.50006 3.77498 7.55006 3.72498 7.57506ZM14.25 7.57506L14.875 8.22506C14.9 8.25006 14.9 8.25006 14.925 8.25006C14.95 8.25006 14.975 8.25006 14.975 8.22506C14.975 8.22506 15.6 8.02506 16.6 7.00006C17.6 5.97506 17.825 5.45006 17.825 5.45006C17.85 5.42506 17.85 5.37506 17.825 5.32506L17.2 4.67506C17.175 4.65006 17.15 4.65006 17.15 4.65006C17.125 4.65006 17.1 4.65006 17.1 4.67506C17.1 4.67506 16.8 5.32506 15.9 6.22506C15 7.12506 14.25 7.47506 14.25 7.47506C14.225 7.50006 14.225 7.55006 14.25 7.57506ZM11.6 0.375064C11.55 0.350064 11.5 0.350064 11.45 0.400064L9.12498 4.00006C9.07498 4.07506 9.07498 4.15006 9.07498 4.22506H8.89997C8.92497 4.15006 8.89998 4.07506 8.84998 4.00006L6.49998 0.400064C6.47498 0.350064 6.39998 0.350064 6.34998 0.375064C5.79998 0.750064 5.64998 1.50006 5.99998 2.05006L7.82498 4.87506C7.84998 4.90006 7.87498 4.92506 7.89998 4.92506H7.92498C7.94998 4.92506 7.97498 4.92506 7.97498 4.90006L8.77497 4.37506C8.82497 4.35006 8.84998 4.30006 8.87498 4.25006V7.90006C8.87498 7.95006 8.92498 8.00006 8.97498 8.00006C9.02498 8.00006 9.07498 7.95006 9.07498 7.90006V4.25006C9.09998 4.30006 9.12498 4.35006 9.17498 4.40006L9.97498 4.92506C9.99998 4.92506 9.99997 4.95006 10.025 4.95006H10.05C10.075 4.95006 10.1 4.92506 10.125 4.90006L11.95 2.07506C12.325 1.50006 12.175 0.750064 11.6 0.375064Z" fill="#00B1FF"/>
<path d="M9.925 5.5001C9.925 5.6501 9.8 5.7751 9.65 5.7751C9.5 5.7751 9.375 5.6501 9.375 5.5001C9.375 5.3501 9.5 5.2251 9.65 5.2251C9.8 5.2251 9.925 5.3501 9.925 5.5001ZM9.65 6.4001C9.5 6.4001 9.375 6.5251 9.375 6.6751C9.375 6.8251 9.5 6.9501 9.65 6.9501C9.8 6.9501 9.925 6.8251 9.925 6.6751C9.925 6.5251 9.8 6.4001 9.65 6.4001ZM9.65 7.5501C9.5 7.5501 9.375 7.6751 9.375 7.8251C9.375 7.9751 9.5 8.1001 9.65 8.1001C9.8 8.1001 9.925 7.9751 9.925 7.8251C9.925 7.6751 9.8 7.5501 9.65 7.5501Z" fill="white"/>
</g>
<defs>
<clipPath id="clip0_33_937">
<rect width="18" height="18" fill="white"/>
</clipPath>
</defs>
</svg>
