<svg width="18" height="18" viewBox="0 0 18 18" fill="none" xmlns="http://www.w3.org/2000/svg">
<path d="M15.8118 3.323H2.18809L0.97168 12.3807L8.28137 14.0133L8.78762 11.1657C8.80871 11.0475 8.90434 10.9899 8.99855 10.9913C9.09418 10.9899 9.1884 11.0489 9.20949 11.1657L9.71574 14.0133L17.0254 12.3807L15.8118 3.323Z" fill="#29B6F6"/>
<path d="M15.9089 1.6974C15.8976 1.37818 15.6487 1.12646 15.345 1.12646H2.65216C2.34841 1.12646 2.09951 1.37818 2.08826 1.6974L2.1881 3.32303H15.8076L15.9089 1.6974Z" fill="#1C3AA9"/>
<path d="M0.950601 12.5466C0.950601 12.5466 0.656694 14.8515 0.563882 15.5462C0.549819 15.6573 0.732632 15.7838 0.732632 15.7838C3.4256 17.1549 7.50091 17.1507 7.50091 17.1507C7.61904 17.1746 7.73294 17.0973 7.75404 16.9791C7.80888 16.6683 7.86513 16.3576 7.91998 16.0468C7.97623 15.729 8.20263 14.4563 8.25888 14.1385L0.950601 12.5466Z" fill="#2A56C6"/>
<path d="M8.22942 14.3057C7.74849 14.0132 7.55724 12.6745 6.98911 12.6056C6.42099 12.5367 5.92599 13.6251 5.26646 13.5309C4.60692 13.4381 4.64067 12.0895 3.91927 11.9432C3.26536 11.811 2.6663 13.0148 1.98567 12.7799C1.51739 12.6196 1.65521 11.8729 1.07021 11.6353L0.815674 13.5548C0.97458 13.9134 1.24739 14.324 1.82114 14.4604C2.57208 14.6376 2.92786 14.1285 3.22739 13.8445C3.31177 13.7643 3.45239 13.5843 3.57614 13.5899C3.75474 13.5998 3.78989 13.8093 3.83067 13.9781C3.92489 14.3788 4.18224 15.0173 4.93317 15.1945C5.68411 15.3717 6.12146 14.9188 6.41958 14.6362C6.50396 14.556 6.63052 14.3367 6.76974 14.3746C6.90896 14.4126 6.90333 14.5673 6.96802 14.7515C7.09739 15.1213 7.28161 15.6979 7.94817 15.9103L8.22942 14.3057Z" fill="#4DB6AC"/>
<path d="M8.19144 14.5182L8.32925 13.7476C8.22519 13.6759 8.14644 13.5282 8.048 13.2554C7.913 12.8842 7.72878 12.3751 7.13956 12.2359C6.55034 12.0967 6.158 12.4693 5.87112 12.7421C5.60112 12.9981 5.47456 13.0993 5.303 13.0585C5.13144 13.0178 5.06394 12.8715 4.93737 12.5228C4.80237 12.1515 4.61815 11.6425 4.02894 11.5032C3.43972 11.364 3.04737 11.7367 2.7605 12.0095C2.4905 12.2654 2.36394 12.3653 2.19378 12.3259C2.02222 12.2851 1.95472 12.1389 1.82815 11.7887C1.71565 11.4765 1.58206 11.0771 1.1869 10.8718L1.03784 11.8604C1.06034 11.9153 1.08284 11.9771 1.10956 12.0489C1.24456 12.4201 1.42878 12.9292 2.018 13.0684C2.60722 13.2076 2.99956 12.835 3.28644 12.5621C3.55644 12.3062 3.683 12.205 3.85315 12.2457C4.02472 12.2865 4.09222 12.4328 4.21878 12.7815C4.35378 13.1528 4.538 13.6618 5.12722 13.801C5.71644 13.9403 6.10878 13.5676 6.39565 13.2948C6.66565 13.0389 6.79222 12.939 6.96378 12.9784C7.13534 13.0192 7.20425 13.1654 7.33081 13.5156C7.45878 13.8742 7.65144 14.3593 8.19144 14.5182Z" fill="#82E8B6"/>
<path d="M17.0494 12.5466C17.0494 12.5466 17.3433 14.8515 17.4361 15.5462C17.4502 15.6573 17.2673 15.7838 17.2673 15.7838C14.5744 17.1549 10.4991 17.1507 10.4991 17.1507C10.3809 17.1746 10.267 17.0973 10.2459 16.9791C10.1911 16.6683 10.1348 16.3576 10.08 16.0468C10.0237 15.729 9.79734 14.4563 9.74109 14.1385L17.0494 12.5466Z" fill="#2A56C6"/>
<path d="M9.77063 14.3057C10.2516 14.0132 10.4428 12.6745 11.0109 12.6056C11.5791 12.5367 12.0741 13.6251 12.7336 13.5309C13.3931 13.4381 13.3594 12.0895 14.0808 11.9432C14.7347 11.811 15.3338 13.0148 16.0144 12.7799C16.4827 12.6196 16.3448 11.8729 16.9298 11.6353L17.1858 13.5562C17.0269 13.9148 16.7541 14.3254 16.1803 14.4618C15.4294 14.639 15.0736 14.1299 14.7741 13.8459C14.6897 13.7657 14.5491 13.5857 14.4253 13.5913C14.2467 13.6012 14.2116 13.8107 14.1708 13.9795C14.0766 14.3803 13.8192 15.0187 13.0683 15.1959C12.3173 15.3731 11.88 14.9203 11.5819 14.6376C11.4975 14.5574 11.3709 14.3381 11.2317 14.376C11.0939 14.414 11.0981 14.5687 11.0334 14.7529C10.9041 15.1228 10.7198 15.6993 10.0533 15.9117L9.77063 14.3057Z" fill="#4DB6AC"/>
<path d="M9.80859 14.5182L9.67078 13.7476C9.77484 13.6759 9.85359 13.5282 9.95203 13.2554C10.087 12.8842 10.2712 12.3751 10.8605 12.2359C11.4497 12.0967 11.842 12.4693 12.1289 12.7421C12.3989 12.9981 12.5255 13.0993 12.697 13.0585C12.8686 13.0178 12.9361 12.8715 13.0627 12.5228C13.1977 12.1515 13.3819 11.6425 13.9711 11.5032C14.5603 11.364 14.9527 11.7367 15.2395 12.0095C15.5095 12.2654 15.6361 12.3653 15.8062 12.3259C15.9778 12.2851 16.0453 12.1389 16.1719 11.7887C16.2844 11.4765 16.418 11.0771 16.8131 10.8718L16.9622 11.8604C16.9397 11.9153 16.9172 11.9771 16.8905 12.0489C16.7555 12.4201 16.5712 12.9292 15.982 13.0684C15.3928 13.2076 15.0005 12.835 14.7136 12.5621C14.4436 12.3062 14.317 12.205 14.1469 12.2457C13.9753 12.2865 13.9078 12.4328 13.7812 12.7815C13.6462 13.1528 13.462 13.6618 12.8728 13.801C12.2836 13.9403 11.8912 13.5676 11.6044 13.2948C11.3344 13.0389 11.2078 12.939 11.0362 12.9784C10.8647 13.0192 10.7958 13.1654 10.6692 13.5156C10.5412 13.8742 10.3486 14.3593 9.80859 14.5182Z" fill="#82E8B6"/>
<path opacity="0.57" d="M11.0292 2.68304H7.89612C7.80288 2.68304 7.71346 2.646 7.64753 2.58007C7.58159 2.51414 7.54456 2.42471 7.54456 2.33147V2.01929C7.54456 1.82663 7.70206 1.66772 7.89612 1.66772H11.0292C11.0754 1.66772 11.1211 1.67682 11.1638 1.69449C11.2064 1.71215 11.2452 1.73805 11.2778 1.77069C11.3105 1.80334 11.3364 1.8421 11.354 1.88475C11.3717 1.9274 11.3808 1.97312 11.3808 2.01929V2.33147C11.3808 2.52554 11.2219 2.68304 11.0292 2.68304Z" fill="#212121"/>
<path d="M8.33768 2.19385C9.60893 2.36119 12.0699 4.34119 11.4933 5.73057C11.3203 6.14822 10.2938 6.47729 9.80159 4.61541C9.61596 3.91229 9.70174 2.86463 9.51471 2.82666C9.32768 2.78869 9.58081 6.93713 8.1619 7.31822C7.62471 7.46307 6.60096 6.99057 7.21268 5.41697C7.42924 4.85869 9.34877 2.41322 10.8647 2.19525" stroke="#FAFAFA" stroke-width="0.507375" stroke-miterlimit="10" stroke-linecap="round"/>
</svg>
