<svg width="18" height="18" viewBox="0 0 18 18" fill="none" xmlns="http://www.w3.org/2000/svg">
<path d="M17.6639 14.3311C17.6639 14.3311 16.695 11.0447 16.1325 9.5836C15.4251 7.74704 13.8192 4.14282 13.4648 3.97688C13.4142 3.95298 13.365 3.9361 13.3172 3.92345L11.1319 3.12329H6.87092L4.69123 3.92204C4.64061 3.9347 4.58858 3.95157 4.53514 3.97688C4.18076 4.14423 2.57904 7.73579 1.86748 9.5836C1.30498 11.0447 0.336076 14.3311 0.336076 14.3311C0.288263 14.4816 0.345919 14.6447 0.479513 14.7291C0.770607 14.9105 1.36967 15.1959 2.40467 15.3197C2.55936 15.338 2.70701 15.2522 2.76748 15.1088C2.93201 14.7136 4.96686 9.83813 5.17217 9.28548L4.63358 15.622C4.62233 15.7683 4.71936 15.8991 4.86139 15.9314C5.3592 16.0453 6.76967 16.2689 9.0042 16.2689C11.2373 16.2689 12.6478 16.0439 13.147 15.9314C13.289 15.8991 13.3861 15.7683 13.3748 15.622L12.8376 9.29814C13.0415 9.84657 15.0736 14.7122 15.2367 15.1074C15.2659 15.1773 15.3171 15.2357 15.3826 15.2738C15.4482 15.3119 15.5243 15.3275 15.5995 15.3183C16.6331 15.1945 17.2336 14.9091 17.5247 14.7277C17.6555 14.6447 17.7131 14.4816 17.6639 14.3311Z" fill="#004F7C"/>
<path d="M7.81311 9.50341C8.02513 9.50341 8.19701 9.33153 8.19701 9.1195C8.19701 8.90748 8.02513 8.7356 7.81311 8.7356C7.60108 8.7356 7.4292 8.90748 7.4292 9.1195C7.4292 9.33153 7.60108 9.50341 7.81311 9.50341Z" fill="#00273D"/>
<path d="M9.80151 9.50341C10.0135 9.50341 10.1854 9.33153 10.1854 9.1195C10.1854 8.90748 10.0135 8.7356 9.80151 8.7356C9.58948 8.7356 9.4176 8.90748 9.4176 9.1195C9.4176 9.33153 9.58948 9.50341 9.80151 9.50341Z" fill="#00273D"/>
<path d="M7.81311 11.6142C8.02513 11.6142 8.19701 11.4424 8.19701 11.2303C8.19701 11.0183 8.02513 10.8464 7.81311 10.8464C7.60108 10.8464 7.4292 11.0183 7.4292 11.2303C7.4292 11.4424 7.60108 11.6142 7.81311 11.6142Z" fill="#00273D"/>
<path d="M9.80151 11.6142C10.0135 11.6142 10.1854 11.4424 10.1854 11.2303C10.1854 11.0183 10.0135 10.8464 9.80151 10.8464C9.58948 10.8464 9.4176 11.0183 9.4176 11.2303C9.4176 11.4424 9.58948 11.6142 9.80151 11.6142Z" fill="#00273D"/>
<path d="M7.81311 13.7236C8.02513 13.7236 8.19701 13.5517 8.19701 13.3397C8.19701 13.1277 8.02513 12.9558 7.81311 12.9558C7.60108 12.9558 7.4292 13.1277 7.4292 13.3397C7.4292 13.5517 7.60108 13.7236 7.81311 13.7236Z" fill="#00273D"/>
<path d="M9.80151 13.7236C10.0135 13.7236 10.1854 13.5517 10.1854 13.3397C10.1854 13.1277 10.0135 12.9558 9.80151 12.9558C9.58948 12.9558 9.4176 13.1277 9.4176 13.3397C9.4176 13.5517 9.58948 13.7236 9.80151 13.7236Z" fill="#00273D"/>
<path d="M7.81311 9.33324C8.02513 9.33324 8.19701 9.16136 8.19701 8.94934C8.19701 8.73731 8.02513 8.56543 7.81311 8.56543C7.60108 8.56543 7.4292 8.73731 7.4292 8.94934C7.4292 9.16136 7.60108 9.33324 7.81311 9.33324Z" fill="#B5840D"/>
<path d="M9.80151 9.33324C10.0135 9.33324 10.1854 9.16136 10.1854 8.94934C10.1854 8.73731 10.0135 8.56543 9.80151 8.56543C9.58948 8.56543 9.4176 8.73731 9.4176 8.94934C9.4176 9.16136 9.58948 9.33324 9.80151 9.33324Z" fill="#B5840D"/>
<path d="M7.81311 11.4426C8.02513 11.4426 8.19701 11.2707 8.19701 11.0587C8.19701 10.8467 8.02513 10.6748 7.81311 10.6748C7.60108 10.6748 7.4292 10.8467 7.4292 11.0587C7.4292 11.2707 7.60108 11.4426 7.81311 11.4426Z" fill="#B5840D"/>
<path d="M9.80151 11.4426C10.0135 11.4426 10.1854 11.2707 10.1854 11.0587C10.1854 10.8467 10.0135 10.6748 9.80151 10.6748C9.58948 10.6748 9.4176 10.8467 9.4176 11.0587C9.4176 11.2707 9.58948 11.4426 9.80151 11.4426Z" fill="#B5840D"/>
<path d="M7.81311 13.552C8.02513 13.552 8.19701 13.3801 8.19701 13.1681C8.19701 12.9561 8.02513 12.7842 7.81311 12.7842C7.60108 12.7842 7.4292 12.9561 7.4292 13.1681C7.4292 13.3801 7.60108 13.552 7.81311 13.552Z" fill="#B5840D"/>
<path d="M9.80151 13.552C10.0135 13.552 10.1854 13.3801 10.1854 13.1681C10.1854 12.9561 10.0135 12.7842 9.80151 12.7842C9.58948 12.7842 9.4176 12.9561 9.4176 13.1681C9.4176 13.3801 9.58948 13.552 9.80151 13.552Z" fill="#B5840D"/>
<path opacity="0.5" d="M6.66566 10.2094L6.3366 10.0632C6.22269 10.0125 6.0905 10.0744 6.05675 10.1953L5.32269 12.8278C5.29597 12.9235 5.34238 13.0261 5.43378 13.0683L5.73191 13.2061C5.84581 13.2582 5.97941 13.1977 6.01316 13.0782L6.77816 10.4541C6.80769 10.3543 6.75847 10.2502 6.66566 10.2094ZM11.4314 10.2094L11.7605 10.0632C11.8744 10.0125 12.0066 10.0744 12.0403 10.1953L12.7744 12.8278C12.8011 12.9235 12.7547 13.0261 12.6633 13.0683L12.3652 13.2061C12.2513 13.2582 12.1177 13.1977 12.0839 13.0782L11.3189 10.4541C11.2894 10.3543 11.3386 10.2502 11.4314 10.2094Z" fill="#2686C6"/>
<path d="M10.8028 6.74166C10.6495 6.39994 10.5876 6.19604 10.6214 6.06807C10.6917 5.79666 10.9476 5.62088 11.1909 5.48166C11.1769 5.47182 10.0898 1.87744 10.0898 1.87744H7.91999L6.6178 5.68697C7.53608 5.71791 9.28827 6.79229 9.96608 7.52775C10.2895 7.87791 10.5426 8.28572 10.793 8.69213C10.8619 8.28291 11.1178 7.44338 10.8028 6.74166Z" fill="#00273D"/>
<path d="M7.64859 1.87042L6.44344 2.97573C6.44344 2.97573 6.31406 4.00933 6.32953 4.63229C6.34641 5.30729 6.42656 5.67714 6.87375 5.49573C7.32094 5.31433 7.95234 5.01058 8.10984 4.93183C8.26734 4.85308 8.42344 4.79823 8.325 5.04995C8.22656 5.30167 8.13094 5.79948 8.11969 5.84308C8.06906 6.03151 8.03813 6.16933 8.55563 6.28183C9.07313 6.39433 10.5666 6.7937 10.5666 6.7937C10.5666 6.7937 8.54156 4.47901 8.27297 4.01917C7.94391 3.45667 7.92563 2.69026 7.94391 2.27683C7.94717 2.19773 7.98091 2.12297 8.03805 2.06819C8.09519 2.01341 8.17131 1.98285 8.25047 1.98292H9.71016C9.87188 1.98292 10.0055 2.10808 10.0167 2.26839C10.0434 2.6762 10.0702 3.41167 9.95203 3.71683C9.84234 3.99948 9.53578 4.24136 9.29391 4.41855C9.11953 4.54511 9.14906 4.70823 9.24609 4.81089L9.855 5.52104C9.855 5.52104 9.99844 4.85167 10.0842 4.81933C10.17 4.78698 10.6284 5.23558 11.025 5.37901C11.295 5.47745 11.4216 5.18636 11.4497 5.01761C11.4778 4.85026 11.6283 3.49604 11.5945 3.26401C11.5594 3.03339 11.4216 2.82245 11.2683 2.72401C11.1516 2.64948 10.5553 2.11933 10.2713 1.8662C10.1742 1.77901 9.99141 1.7312 9.86063 1.7312H8.14781C7.92844 1.73261 7.74703 1.78183 7.64859 1.87042Z" fill="#004F7C"/>
<path d="M11.61 3.03184C11.4652 2.8223 11.3091 2.74777 11.1136 2.58887C11.2346 2.73371 11.3443 2.89262 11.3949 3.07402C11.4877 3.44246 11.3443 4.72918 11.3007 4.99215C11.2768 5.13277 11.1628 5.25793 11.0264 5.21293C10.8928 5.16793 10.8394 5.13559 10.2938 4.69121C10.0828 4.51965 9.94644 4.51965 9.85785 4.7798C9.7791 5.00902 9.6891 5.32543 9.6891 5.32543L9.96613 5.65027C9.96613 5.65027 10.0983 5.10324 10.1377 4.94855C10.7705 5.4323 11.0264 5.5448 11.1966 5.52371C11.5257 5.48434 11.5805 5.13559 11.5974 5.03996C11.6578 4.5998 11.6677 4.1498 11.7071 3.70684C11.7211 3.51137 11.7436 3.22449 11.61 3.03184ZM10.2586 6.59527C9.848 6.38715 9.07175 6.25496 8.57957 6.13543C8.41222 6.09465 8.24347 6.05387 8.26597 5.92871C8.28988 5.83027 8.36863 5.4759 8.42207 5.3198C8.4755 5.16371 8.60066 4.85012 8.4291 4.72637C8.29972 4.63215 8.12816 4.72496 8.12816 4.72496C8.11972 4.73059 7.36597 5.1173 6.93707 5.29449C6.75707 5.36902 6.608 5.33246 6.56863 5.06527C6.43644 4.16809 6.41957 3.35809 6.86394 2.5973C6.75847 2.70418 6.56441 2.83215 6.45472 2.9334C6.22691 3.14012 6.14394 4.46059 6.30144 5.3198C6.35769 5.62777 6.58129 5.7909 6.99613 5.59402C7.39269 5.40559 8.17738 5.04559 8.17738 5.04559C8.17738 5.04559 7.99316 5.71496 7.96504 5.95684C7.93832 6.19871 8.05363 6.32949 8.51629 6.42793C8.81722 6.49262 9.47535 6.56996 9.86629 6.72465C10.3374 6.91168 10.471 6.97074 10.8028 7.38699C10.6974 7.01855 10.5961 6.76543 10.2586 6.59527Z" fill="#2686C6"/>
<path d="M10.5933 16.2267L9.76779 16.2633C9.76779 16.2633 9.99982 16.1255 10.3795 16.0537C10.7325 15.9876 10.6748 15.7162 10.6748 15.4786V8.15906C10.6748 6.99468 10.267 6.92859 9.91264 6.73874L10.26 6.5939C10.2937 6.61218 10.9758 6.80484 10.9758 8.15906V15.6248C10.9758 15.8906 10.9997 16.2267 10.5933 16.2267ZM7.98326 3.10218C7.98326 3.10218 7.79061 2.70702 7.7442 2.34562C7.69217 1.93077 7.83701 1.78171 8.17873 1.73249C8.54858 1.67905 9.46686 1.70296 9.69186 1.7114C9.88311 1.71702 10.184 1.73249 10.2544 2.04749C10.3233 2.35124 10.0406 3.10359 10.0406 3.10359C10.0406 3.10359 10.035 2.33015 10.0195 2.27109C10.004 2.21202 9.97451 2.07421 9.69186 2.03202C9.08154 1.94062 8.77076 1.98562 8.34467 1.97296C7.95654 1.96171 7.95233 2.16562 7.94811 2.4778C7.94529 2.78859 7.98326 3.10218 7.98326 3.10218Z" fill="#2686C6"/>
<path d="M5.3817 7.79613C5.37045 6.9116 5.01326 5.21847 4.57733 4.44785C4.56618 4.4282 4.56009 4.4061 4.5596 4.38352C4.55911 4.36093 4.56424 4.33858 4.57451 4.31847C4.62655 4.22004 4.76576 4.22004 4.8178 4.31847C5.39576 5.42097 5.70233 7.11832 5.49561 8.02675C5.49702 8.02675 5.38733 8.20394 5.3817 7.79613ZM12.6183 7.79613C12.6295 6.9116 12.9867 5.21847 13.4226 4.44785C13.4451 4.40707 13.4465 4.35925 13.4255 4.31847C13.4139 4.29621 13.3964 4.27756 13.375 4.26453C13.3535 4.25151 13.3289 4.24463 13.3038 4.24463C13.2787 4.24463 13.2541 4.25151 13.2327 4.26453C13.2112 4.27756 13.1937 4.29621 13.1822 4.31847C12.6042 5.42097 12.2976 7.11832 12.5044 8.02675C12.503 8.02675 12.6126 8.20394 12.6183 7.79613Z" fill="#00273D"/>
</svg>
