<svg width="18" height="18" viewBox="0 0 18 18" fill="none" xmlns="http://www.w3.org/2000/svg">
<g clip-path="url(#clip0_33_887)">
<path d="M17.9156 4.52803C17.9156 4.52803 16.2 1.15303 15.75 0.899902C15.3 0.646777 12.7969 0.703027 11.8688 0.337402C11.8688 0.337402 10.7156 1.6874 9.00002 1.6874C7.2844 1.6874 6.13127 0.337402 6.13127 0.337402C5.17502 0.703027 2.70002 0.646777 2.25002 0.899902C1.80002 1.15303 0.0562744 4.52803 0.0562744 4.52803C1.01252 6.69365 3.26252 7.17178 3.26252 7.17178L4.16252 5.76553L3.74065 16.6499C5.90627 17.9155 7.48127 17.9999 9.00002 17.9999C10.5188 17.9999 12.0656 17.9155 14.2313 16.678L13.8094 5.79365L14.7094 7.1999C14.7094 7.17178 16.9875 6.72178 17.9156 4.52803Z" fill="#42ADE2"/>
<path d="M9.05625 2.025C8.60625 2.025 8.18438 1.94063 7.73438 1.77188C7.39687 1.63125 7.03125 1.4625 6.69375 1.2375C6.13125 0.871875 5.76562 0.478125 5.76562 0.478125L6.3 0.05625C6.3 0.05625 6.60937 0.39375 7.11562 0.73125C7.56562 1.0125 8.26875 1.37813 9.05625 1.37813C9.95625 1.37813 10.8281 0.9 11.6438 0L12.1781 0.421875C11.6719 0.984375 11.1656 1.40625 10.6031 1.65938C10.125 1.88438 9.61875 2.025 9.05625 2.025ZM3.65625 6.58125C2.67188 6.49687 1.82812 6.01875 1.15312 5.14687C0.759375 4.64062 0.50625 4.13437 0.39375 3.85312L0 4.64062C0.140625 4.92188 0.3375 5.23125 0.590625 5.54063C0.984375 6.04688 1.43438 6.44062 1.9125 6.72187C2.33438 6.975 2.78437 7.14375 3.29062 7.2L3.65625 6.58125ZM14.3438 6.60938C15.3281 6.525 16.1719 6.04687 16.8469 5.175C17.2406 4.66875 17.4937 4.1625 17.6062 3.88125L18 4.64062C17.8594 4.92188 17.6625 5.23125 17.4094 5.54063C17.0156 6.04688 16.5656 6.44062 16.0875 6.72187C15.6656 6.975 15.1875 7.14375 14.7094 7.2L14.3438 6.60938Z" fill="#22648C"/>
</g>
<defs>
<clipPath id="clip0_33_887">
<rect width="18" height="18" fill="white"/>
</clipPath>
</defs>
</svg>
