<svg width="18" height="18" viewBox="0 0 18 18" fill="none" xmlns="http://www.w3.org/2000/svg">
<g clip-path="url(#clip0_26_5520)">
<path d="M9.92811 3.56484L9.80577 1.08141C9.78046 0.710156 9.49077 0.421875 9.14202 0.421875H9.10827C8.75952 0.421875 8.47124 0.710156 8.44452 1.08141L8.31655 3.65344C8.30249 3.85172 8.36577 4.04719 8.49233 4.19203C8.61749 4.33828 8.79467 4.42125 8.97889 4.42125H9.27561C9.64264 4.42125 9.94077 4.10203 9.94077 3.70828C9.94077 3.65906 9.93655 3.61125 9.92811 3.56484ZM6.98061 17.7877C5.60389 17.7877 4.41139 16.8553 4.07811 15.5208C4.0241 15.3028 4.05877 15.0723 4.17451 14.8798C4.29024 14.6874 4.47759 14.5487 4.69546 14.4942C5.14686 14.3803 5.60811 14.6587 5.72061 15.1116C5.79031 15.3928 5.95235 15.6425 6.18079 15.8207C6.40924 15.9989 6.69087 16.0954 6.98061 16.0945C7.69639 16.0945 8.27858 15.5123 8.27858 14.7966V5.50125C8.27858 5.03297 8.65686 4.65469 9.12514 4.65469C9.34967 4.65469 9.56499 4.74388 9.72375 4.90264C9.88251 5.0614 9.97171 5.27673 9.97171 5.50125V14.7952C9.9703 16.4447 8.63014 17.7877 6.98061 17.7877Z" fill="#78A3AD"/>
<path d="M3.33849 8.81287C4.5788 8.81287 5.6574 9.50193 6.21427 10.5172C6.77115 9.50193 7.84974 8.81287 9.09005 8.81287C10.3304 8.81287 11.409 9.50193 11.9658 10.5172C12.5213 9.50193 13.6013 8.81287 14.8402 8.81287C15.8401 8.81287 16.7358 9.26287 17.3363 9.97021C17.3546 9.80146 17.3672 9.63271 17.3672 9.46115C17.3672 6.03271 13.6618 3.25537 9.09005 3.25537C4.51974 3.25537 0.812866 6.03412 0.812866 9.46115C0.812866 9.63131 0.824116 9.80146 0.843804 9.97021C1.44287 9.26428 2.33724 8.81287 3.33849 8.81287Z" fill="#006CA2"/>
<path d="M11.9644 10.4991C11.835 10.4991 11.7169 10.4288 11.655 10.3163C11.4029 9.85587 11.0317 9.47173 10.5802 9.20404C10.1286 8.93636 9.61348 8.79497 9.08859 8.79469C8.01984 8.79469 7.03688 9.37828 6.52219 10.3163C6.39844 10.5427 6.02719 10.5427 5.90344 10.3163C5.65133 9.85587 5.28009 9.47173 4.82859 9.20404C4.37708 8.93636 3.86192 8.79497 3.33703 8.79469C2.47922 8.79469 1.66781 9.17156 1.10953 9.82828C1.01812 9.93656 0.873281 9.97734 0.736875 9.93797C0.670748 9.91789 0.612004 9.87878 0.567985 9.8255C0.523965 9.77223 0.496623 9.70716 0.489375 9.63844C0.468726 9.45681 0.457929 9.2742 0.457031 9.09141C0.458437 5.47453 4.32984 2.53125 9.08859 2.53125C13.8473 2.53125 17.7188 5.47453 17.7188 9.09C17.7188 9.27422 17.7061 9.45703 17.6864 9.63703C17.6709 9.77766 17.5739 9.89438 17.4389 9.93656C17.3039 9.97594 17.1577 9.93375 17.0677 9.82687C16.5094 9.17016 15.698 8.79328 14.8402 8.79328C13.7714 8.79328 12.7884 9.37687 12.2737 10.3148C12.2119 10.4287 12.0938 10.4991 11.9644 10.4991ZM3.33844 8.08875C4.47469 8.08875 5.53219 8.61891 6.21422 9.50344C6.55333 9.06327 6.98895 8.70681 7.48754 8.46154C7.98612 8.21626 8.53435 8.08871 9.09 8.08871C9.64565 8.08871 10.1939 8.21626 10.6925 8.46154C11.191 8.70681 11.6267 9.06327 11.9658 9.50344C12.3046 9.06334 12.74 8.70693 13.2384 8.46165C13.7367 8.21638 14.2847 8.0888 14.8402 8.08875C15.6277 8.08875 16.3842 8.34469 17.0044 8.80734C16.8033 5.70938 13.3692 3.375 9.12797 3.375C4.88813 3.375 1.37391 5.70937 1.17422 8.80594C1.79438 8.34469 2.55094 8.08875 3.33844 8.08875Z" fill="#006CA2"/>
</g>
<defs>
<clipPath id="clip0_26_5520">
<rect width="18" height="18" fill="white"/>
</clipPath>
</defs>
</svg>
