<svg width="18" height="18" viewBox="0 0 18 18" fill="none" xmlns="http://www.w3.org/2000/svg">
<g clip-path="url(#clip0_26_5371)">
<path d="M15 4.5C14.5 3.5 12.5 2.5 11.5 2.5C11.5 2.5 12.097 1.413 11 1C10.5065 0.814 10 0.75 9 0.75C8.1925 0.75 7.4935 0.814 7 1C5.903 1.413 6.5 2.5 6.5 2.5C5.5 2.5 3.5 3.5 3 4.5C2.5 5.5 0.5 15.4845 0.5 17.25C0.5 17.75 2.816 17.965 3 17.5C3.3955 16.5 4.5 9.5 4.5 9.5V17C4.5 18 7 17.5 9 17.5C11 17.5 13.5 18 13.5 17V9.5C13.5 9.5 14.7625 17.06 15 17.5C15.2495 17.9615 17.5 17.75 17.5 17.25C17.5 15.4845 15.5 5.5 15 4.5Z" fill="#55ACEE"/>
<path d="M7 1.5C7 1.224 7 1 9 1C11 1 11 1.224 11 1.5C11 1.776 10.1045 2.5 9 2.5C7.8955 2.5 7 1.776 7 1.5Z" fill="#226699"/>
<path d="M9.00002 17.25C8.93372 17.25 8.87013 17.2236 8.82325 17.1768C8.77636 17.1299 8.75002 17.0663 8.75002 17V2.99998C8.75002 2.93368 8.77636 2.87009 8.82325 2.8232C8.87013 2.77632 8.93372 2.74998 9.00002 2.74998C9.06633 2.74998 9.12992 2.77632 9.1768 2.8232C9.22369 2.87009 9.25002 2.93368 9.25002 2.99998V17C9.25002 17.0663 9.22369 17.1299 9.1768 17.1768C9.12992 17.2236 9.06633 17.25 9.00002 17.25ZM6.81252 16.764C5.91552 16.764 5.03052 16.6755 4.97502 16.67C4.94236 16.6667 4.91066 16.657 4.88175 16.6414C4.85284 16.6258 4.82727 16.6047 4.80652 16.5793C4.78576 16.5538 4.77022 16.5245 4.76079 16.4931C4.75135 16.4616 4.7482 16.4286 4.75152 16.396C4.75471 16.3633 4.76434 16.3315 4.77987 16.3026C4.7954 16.2736 4.81651 16.248 4.842 16.2273C4.86748 16.2066 4.89682 16.1911 4.92832 16.1818C4.95982 16.1724 4.99286 16.1695 5.02552 16.173C5.04602 16.1745 7.04752 16.3735 8.01802 16.1765C8.08307 16.1632 8.15072 16.1763 8.20609 16.213C8.26146 16.2496 8.30001 16.3067 8.31327 16.3717C8.32653 16.4368 8.31341 16.5044 8.2768 16.5598C8.24018 16.6152 8.18307 16.6537 8.11802 16.667C7.75802 16.7395 7.28352 16.764 6.81252 16.764ZM6.32752 15.222C5.63852 15.222 5.01402 15.1825 4.88702 15.174C4.82094 15.1695 4.75933 15.139 4.71574 15.0891C4.67215 15.0392 4.65013 14.9741 4.65452 14.908C4.65601 14.8749 4.66418 14.8425 4.67853 14.8127C4.69288 14.7829 4.71311 14.7563 4.73802 14.7346C4.76292 14.7128 4.79197 14.6963 4.82342 14.6861C4.85488 14.6758 4.88808 14.672 4.92102 14.675C5.58252 14.7195 7.42202 14.7865 7.97552 14.5655C8.00634 14.5511 8.03975 14.5432 8.07373 14.5422C8.1077 14.5412 8.14152 14.5472 8.17312 14.5597C8.20472 14.5722 8.23344 14.591 8.25752 14.615C8.28159 14.639 8.30052 14.6677 8.31315 14.6992C8.32578 14.7308 8.33184 14.7646 8.33097 14.7986C8.33009 14.8325 8.3223 14.866 8.30806 14.8968C8.29382 14.9277 8.27344 14.9553 8.24816 14.9781C8.22288 15.0008 8.19323 15.0181 8.16102 15.029C7.77952 15.182 7.02102 15.222 6.32752 15.222ZM6.93602 13.6325C6.11102 13.6325 5.16052 13.561 4.88352 13.5385C4.81931 13.5308 4.76057 13.4986 4.71963 13.4485C4.6787 13.3984 4.65875 13.3344 4.664 13.27C4.66924 13.2055 4.69926 13.1456 4.74774 13.1028C4.79623 13.06 4.85941 13.0377 4.92402 13.0405C6.21102 13.1445 7.69852 13.178 7.96002 13.0525C7.98964 13.0383 8.02175 13.0301 8.05454 13.0283C8.08733 13.0265 8.12014 13.0312 8.15111 13.0422C8.18208 13.0531 8.21059 13.07 8.23503 13.0919C8.25947 13.1138 8.27934 13.1404 8.29352 13.17C8.30771 13.1996 8.31592 13.2317 8.31769 13.2645C8.31946 13.2973 8.31475 13.3301 8.30384 13.3611C8.29293 13.392 8.27603 13.4206 8.2541 13.445C8.23217 13.4694 8.20564 13.4893 8.17602 13.5035C7.97152 13.6015 7.48102 13.6325 6.93602 13.6325ZM6.91652 12.0875C6.03152 12.0875 5.04152 11.9835 4.87652 11.9655C4.84385 11.9619 4.81219 11.952 4.78336 11.9362C4.75454 11.9204 4.72911 11.8991 4.70854 11.8734C4.68796 11.8478 4.67265 11.8183 4.66346 11.7868C4.65428 11.7552 4.65141 11.7222 4.65502 11.6895C4.65798 11.6566 4.66754 11.6247 4.68313 11.5957C4.69871 11.5666 4.72001 11.541 4.74573 11.5203C4.77146 11.4997 4.80109 11.4845 4.83284 11.4756C4.86459 11.4667 4.89782 11.4642 4.93052 11.4685C5.60252 11.542 7.46002 11.6875 7.97602 11.4845C8.00686 11.4706 8.04021 11.4631 8.07403 11.4624C8.10786 11.4617 8.14147 11.468 8.17282 11.4807C8.20417 11.4934 8.23262 11.5124 8.25643 11.5364C8.28025 11.5604 8.29894 11.589 8.31137 11.6205C8.3238 11.652 8.32971 11.6856 8.32875 11.7194C8.32779 11.7533 8.31998 11.7865 8.30578 11.8173C8.29158 11.848 8.2713 11.8755 8.24616 11.8981C8.22102 11.9208 8.19155 11.9381 8.15952 11.949C7.89602 12.053 7.42352 12.0875 6.91652 12.0875ZM6.94002 10.3255C6.06352 10.3255 5.05652 10.2695 4.88902 10.2595C4.82286 10.2556 4.76094 10.2256 4.71687 10.1761C4.67281 10.1266 4.6502 10.0616 4.65402 9.99548C4.66202 9.85798 4.77852 9.74298 4.91802 9.76048C5.60902 9.80048 7.51152 9.87898 8.01252 9.76648C8.04494 9.75809 8.07872 9.7563 8.11184 9.76122C8.14497 9.76614 8.17677 9.77766 8.20535 9.7951C8.23394 9.81254 8.25873 9.83555 8.27825 9.86276C8.29778 9.88997 8.31164 9.92082 8.31901 9.95349C8.32638 9.98615 8.32711 10.02 8.32116 10.0529C8.31522 10.0859 8.30271 10.1173 8.28438 10.1453C8.26605 10.1734 8.24228 10.1974 8.21448 10.2161C8.18668 10.2347 8.15541 10.2476 8.12252 10.254C7.88502 10.307 7.43302 10.3255 6.94002 10.3255ZM4.90352 8.68748C4.76852 8.68748 4.65752 8.50198 4.65352 8.36648C4.65002 8.22848 4.75902 8.07448 4.89702 8.07098L8.06102 7.96848C8.18402 7.97398 8.31402 8.06398 8.31752 8.20198C8.32102 8.33998 8.21202 8.52798 8.07402 8.53148L4.91002 8.68748H4.90352ZM8.27602 3.49998H8.26402C7.77752 3.49998 6.97002 3.04798 6.87952 2.99798C6.85081 2.98264 6.82544 2.96174 6.8049 2.93648C6.78436 2.91123 6.76905 2.88213 6.75988 2.8509C6.75071 2.81966 6.74786 2.78691 6.75149 2.75456C6.75512 2.72221 6.76516 2.69091 6.78102 2.66248C6.81325 2.60466 6.86708 2.56198 6.93072 2.5438C6.99437 2.52562 7.06262 2.53341 7.12052 2.56548C7.42352 2.73198 8.00802 3.00148 8.28752 3.01448C8.31994 3.01518 8.35189 3.02235 8.38149 3.03556C8.4111 3.04878 8.43777 3.06777 8.45994 3.09143C8.48211 3.11509 8.49933 3.14294 8.51059 3.17334C8.52185 3.20374 8.52693 3.23609 8.52552 3.26848C8.52204 3.33188 8.49408 3.39144 8.44754 3.43463C8.40099 3.47781 8.3395 3.50124 8.27602 3.49998ZM13.286 6.39198C13.2396 6.39207 13.194 6.37921 13.1544 6.35484C13.1148 6.33047 13.0829 6.29555 13.062 6.25401C13.0412 6.21246 13.0324 6.16594 13.0365 6.11965C13.0407 6.07337 13.0576 6.02916 13.0855 5.99198L14.232 4.45798C14.2718 4.40487 14.3311 4.36974 14.3967 4.36032C14.4624 4.35089 14.5292 4.36795 14.5823 4.40773C14.6354 4.44751 14.6705 4.50676 14.6799 4.57245C14.6894 4.63813 14.6723 4.70487 14.6325 4.75798L13.486 6.29198C13.4627 6.32303 13.4325 6.34823 13.3978 6.36559C13.3631 6.38294 13.3248 6.39198 13.286 6.39198Z" fill="#3B88C3"/>
<path d="M9.02201 17.2501C8.95571 17.2501 8.89212 17.2237 8.84524 17.1769C8.79835 17.13 8.77201 17.0664 8.77201 17.0001V3.00009C8.77201 2.93378 8.79835 2.87019 8.84524 2.82331C8.89212 2.77642 8.95571 2.75009 9.02201 2.75009C9.08832 2.75009 9.15191 2.77642 9.19879 2.82331C9.24568 2.87019 9.27201 2.93378 9.27201 3.00009V17.0001C9.27201 17.0664 9.24568 17.13 9.19879 17.1769C9.15191 17.2237 9.08832 17.2501 9.02201 17.2501ZM13.7585 7.87009C13.6992 7.87007 13.6418 7.84897 13.5966 7.81055C13.5515 7.77213 13.5214 7.7189 13.5118 7.66036C13.5023 7.60183 13.5139 7.5418 13.5445 7.49101C13.5751 7.44021 13.6228 7.40196 13.679 7.38309L15.179 6.88309C15.2404 6.86718 15.3056 6.87517 15.3613 6.90543C15.4171 6.9357 15.4593 6.98598 15.4794 7.04614C15.4995 7.1063 15.496 7.17186 15.4697 7.22957C15.4434 7.28728 15.3961 7.33285 15.3375 7.35709L13.8375 7.85709C13.812 7.86563 13.7854 7.87002 13.7585 7.87009ZM14.0645 9.61059C14.0057 9.60954 13.9492 9.58789 13.9047 9.54941C13.8603 9.51092 13.8307 9.45806 13.8213 9.40002C13.8118 9.34199 13.823 9.28248 13.8529 9.23187C13.8829 9.18125 13.9296 9.14276 13.985 9.12309L15.485 8.62309C15.5473 8.60421 15.6145 8.61036 15.6723 8.64023C15.7301 8.6701 15.774 8.72134 15.7946 8.78306C15.8153 8.84477 15.811 8.9121 15.7828 8.97074C15.7546 9.02938 15.7046 9.0747 15.6435 9.09709L14.1435 9.59709C14.1181 9.6058 14.0914 9.61036 14.0645 9.61059ZM14.3525 11.3531C14.2937 11.352 14.2372 11.3304 14.1927 11.2919C14.1483 11.2534 14.1187 11.2006 14.1093 11.1425C14.0998 11.0845 14.111 11.025 14.1409 10.9744C14.1709 10.9238 14.2176 10.8853 14.273 10.8656L15.773 10.3656C15.8042 10.3552 15.8371 10.351 15.8698 10.3533C15.9026 10.3556 15.9346 10.3643 15.964 10.379C15.9934 10.3937 16.0196 10.414 16.0412 10.4388C16.0627 10.4636 16.0791 10.4924 16.0895 10.5236C16.0999 10.5547 16.1041 10.5876 16.1018 10.6204C16.0995 10.6532 16.0908 10.6852 16.0761 10.7146C16.0614 10.744 16.0411 10.7702 16.0163 10.7917C15.9915 10.8133 15.9627 10.8297 15.9315 10.8401L14.4315 11.3401C14.4061 11.3486 14.3794 11.353 14.3525 11.3531ZM14.6735 13.0971C14.6145 13.0956 14.5579 13.0733 14.5137 13.0341C14.4695 12.9949 14.4406 12.9414 14.432 12.8829C14.4235 12.8245 14.4359 12.7649 14.467 12.7147C14.4981 12.6645 14.5459 12.6269 14.602 12.6086L16.109 12.1311C16.1711 12.1149 16.2371 12.1232 16.2933 12.1542C16.3495 12.1853 16.3916 12.2367 16.411 12.2979C16.4304 12.3591 16.4255 12.4254 16.3974 12.4831C16.3693 12.5408 16.3201 12.5856 16.26 12.6081L14.753 13.0856C14.7273 13.0937 14.7005 13.0976 14.6735 13.0971ZM14.9705 14.7996C14.9182 14.7953 14.8686 14.7747 14.8287 14.7407C14.7888 14.7067 14.7605 14.661 14.748 14.6101C14.7402 14.5782 14.7387 14.545 14.7437 14.5125C14.7487 14.4801 14.76 14.4489 14.7771 14.4208C14.7941 14.3927 14.8165 14.3682 14.843 14.3488C14.8695 14.3294 14.8996 14.3154 14.9315 14.3076L16.467 13.9306C16.5301 13.9185 16.5954 13.9311 16.6495 13.9658C16.7036 14.0005 16.7422 14.0546 16.7575 14.117C16.7728 14.1794 16.7635 14.2453 16.7316 14.3011C16.6997 14.3568 16.6476 14.3982 16.586 14.4166L15.0505 14.7936C15.0243 14.7999 14.9973 14.8019 14.9705 14.7996ZM15.259 16.5191C15.2004 16.5127 15.1459 16.4859 15.1051 16.4433C15.0643 16.4007 15.0398 16.3451 15.036 16.2863C15.0322 16.2274 15.0493 16.1691 15.0842 16.1216C15.1191 16.0741 15.1697 16.0405 15.227 16.0266L16.768 15.6736C16.831 15.6631 16.8956 15.6771 16.9486 15.7127C17.0016 15.7482 17.039 15.8026 17.0532 15.8649C17.0675 15.9271 17.0574 15.9924 17.0251 16.0474C16.9928 16.1025 16.9408 16.1431 16.8795 16.1611L15.3385 16.5141C15.3125 16.52 15.2856 16.5217 15.259 16.5191ZM11.2095 16.7641C10.7385 16.7641 10.264 16.7396 9.90451 16.6666C9.84373 16.6493 9.79173 16.6096 9.75888 16.5556C9.72604 16.5016 9.71477 16.4372 9.72734 16.3753C9.7399 16.3134 9.77537 16.2584 9.82666 16.2215C9.87795 16.1846 9.94129 16.1684 10.004 16.1761C10.9755 16.3756 12.977 16.1746 12.9965 16.1726C13.0298 16.1678 13.0638 16.1699 13.0963 16.1785C13.1288 16.1872 13.1593 16.2024 13.1858 16.2231C13.2123 16.2438 13.2344 16.2697 13.2507 16.2992C13.2669 16.3286 13.2771 16.3611 13.2805 16.3946C13.284 16.428 13.2806 16.4619 13.2706 16.494C13.2607 16.5262 13.2443 16.556 13.2226 16.5817C13.2008 16.6074 13.1741 16.6284 13.144 16.6435C13.1139 16.6586 13.0811 16.6675 13.0475 16.6696C12.991 16.6756 12.1065 16.7641 11.2095 16.7641ZM11.695 15.2221C11.001 15.2221 10.243 15.1821 9.86151 15.0296C9.80012 15.0049 9.75101 14.9569 9.72495 14.8961C9.6989 14.8352 9.69802 14.7666 9.72251 14.7051C9.74719 14.6437 9.79521 14.5946 9.85604 14.5685C9.91687 14.5425 9.98554 14.5416 10.047 14.5661C10.601 14.7866 12.44 14.7206 13.1015 14.6756C13.1672 14.6734 13.2312 14.6962 13.2806 14.7395C13.33 14.7828 13.3611 14.8432 13.3675 14.9086C13.3697 14.9414 13.3654 14.9742 13.3548 15.0053C13.3443 15.0364 13.3278 15.0652 13.3061 15.0899C13.2845 15.1146 13.2582 15.1348 13.2287 15.1493C13.1993 15.1638 13.1673 15.1724 13.1345 15.1746C13.008 15.1826 12.3835 15.2221 11.695 15.2221ZM11.086 13.6326C10.5405 13.6326 10.0505 13.6016 9.84651 13.5036C9.78671 13.4749 9.74073 13.4237 9.71869 13.3612C9.69666 13.2986 9.70037 13.2299 9.72901 13.1701C9.75766 13.1103 9.80889 13.0643 9.87143 13.0423C9.93397 13.0202 10.0027 13.0239 10.0625 13.0526C10.3245 13.1781 11.811 13.1451 13.0985 13.0406C13.163 13.038 13.2261 13.0604 13.2744 13.1033C13.3227 13.1461 13.3526 13.206 13.3578 13.2704C13.363 13.3347 13.343 13.3986 13.3021 13.4486C13.2613 13.4986 13.2026 13.5309 13.1385 13.5386C12.862 13.5611 11.911 13.6326 11.086 13.6326ZM11.105 12.0876C10.598 12.0876 10.126 12.0536 9.86251 11.9496C9.80097 11.9252 9.75161 11.8774 9.72527 11.8166C9.69893 11.7559 9.69776 11.6872 9.72201 11.6256C9.73393 11.595 9.75179 11.567 9.77457 11.5434C9.79735 11.5197 9.82459 11.5008 9.85471 11.4878C9.88484 11.4747 9.91726 11.4677 9.9501 11.4673C9.98293 11.4668 10.0155 11.4729 10.046 11.4851C10.5615 11.6871 12.419 11.5426 13.091 11.4691C13.1236 11.4655 13.1567 11.4683 13.1882 11.4775C13.2197 11.4866 13.2492 11.5019 13.2748 11.5224C13.3004 11.5429 13.3218 11.5683 13.3376 11.5971C13.3534 11.6258 13.3634 11.6575 13.367 11.6901C13.3706 11.7227 13.3678 11.7557 13.3586 11.7873C13.3495 11.8188 13.3342 11.8482 13.3137 11.8739C13.2932 11.8995 13.2678 11.9208 13.239 11.9366C13.2102 11.9525 13.1786 11.9625 13.146 11.9661C12.98 11.9836 11.99 12.0876 11.105 12.0876ZM11.073 10.3256C11.9495 10.3256 12.9565 10.2696 13.124 10.2596C13.1902 10.2557 13.2521 10.2257 13.2962 10.1762C13.3402 10.1267 13.3628 10.0618 13.359 9.99558C13.351 9.85809 13.2345 9.74309 13.095 9.76059C12.404 9.80059 10.5015 9.87909 10.0005 9.76659C9.9685 9.75936 9.93539 9.75852 9.90305 9.76409C9.87071 9.76967 9.83979 9.78156 9.81205 9.79909C9.78431 9.81661 9.76029 9.83943 9.74137 9.86624C9.72244 9.89305 9.70899 9.92333 9.70176 9.95534C9.69454 9.98734 9.69369 10.0205 9.69927 10.0528C9.70485 10.0851 9.71674 10.1161 9.73427 10.1438C9.75179 10.1715 9.77461 10.1956 9.80142 10.2145C9.82823 10.2334 9.8585 10.2469 9.89051 10.2541C10.1285 10.3071 10.5805 10.3256 11.073 10.3256ZM13.118 8.68759H13.1115L9.94751 8.52659C9.80951 8.52309 9.70051 8.36909 9.70401 8.23109C9.70788 8.16369 9.73597 8.09996 9.7831 8.05164C9.83023 8.00331 9.89324 7.97364 9.96051 7.96809L13.1245 8.04159C13.2625 8.04509 13.3715 8.23309 13.368 8.37109C13.3645 8.50709 13.2535 8.68759 13.118 8.68759ZM10.0215 6.87509C9.95827 6.87367 9.89791 6.84839 9.85254 6.8043C9.80717 6.76022 9.78016 6.70061 9.77694 6.63743C9.77371 6.57426 9.7945 6.5122 9.83514 6.46372C9.87577 6.41525 9.93325 6.38394 9.99601 6.37609L12.405 6.12659C12.4709 6.1204 12.5365 6.1403 12.5878 6.182C12.6392 6.2237 12.6721 6.28387 12.6795 6.34959C12.6864 6.41548 12.6668 6.48141 12.6251 6.53288C12.5833 6.58435 12.5229 6.61715 12.457 6.62409L10.048 6.87359L10.0215 6.87509ZM10.0635 5.10159C10.0056 5.1015 9.94949 5.0813 9.90481 5.04444C9.86012 5.00757 9.82963 4.95634 9.81853 4.89949C9.80743 4.84263 9.81642 4.78369 9.84396 4.73273C9.87149 4.68177 9.91587 4.64195 9.96951 4.62009C10.7695 4.29609 13.017 4.15509 13.123 4.14909C13.279 4.13659 13.3785 4.24859 13.385 4.38609C13.3867 4.41889 13.3819 4.4517 13.3709 4.48264C13.3599 4.51359 13.3429 4.54206 13.3209 4.56644C13.2989 4.59082 13.2723 4.61062 13.2426 4.62471C13.213 4.63881 13.1808 4.64692 13.148 4.64859C12.4515 4.68459 10.7565 4.84009 10.157 5.08309C10.1273 5.09519 10.0956 5.10147 10.0635 5.10159ZM4.74801 6.39209C4.79448 6.39218 4.84006 6.37932 4.87963 6.35495C4.91919 6.33057 4.95119 6.29566 4.97201 6.25411C4.99283 6.21257 5.00167 6.16604 4.99752 6.11976C4.99337 6.07347 4.9764 6.02926 4.94851 5.99209L3.80201 4.45809C3.76223 4.40504 3.70301 4.36997 3.63737 4.3606C3.57173 4.35122 3.50506 4.3683 3.45201 4.40809C3.39897 4.44787 3.3639 4.50709 3.35453 4.57273C3.34515 4.63837 3.36223 4.70504 3.40201 4.75809L4.54851 6.29208C4.59701 6.35758 4.67251 6.39209 4.74801 6.39209ZM4.27601 7.87009C4.33532 7.87007 4.3927 7.84897 4.43788 7.81055C4.48307 7.77213 4.51313 7.7189 4.52268 7.66036C4.53224 7.60183 4.52067 7.5418 4.49005 7.49101C4.45942 7.44021 4.41174 7.40196 4.35551 7.38309L2.85551 6.88309C2.79411 6.86718 2.72895 6.87517 2.6732 6.90543C2.61745 6.9357 2.57526 6.98598 2.55514 7.04614C2.53502 7.1063 2.53848 7.17186 2.56481 7.22957C2.59114 7.28728 2.63839 7.33285 2.69701 7.35709L4.19701 7.85709C4.22248 7.86563 4.24915 7.87002 4.27601 7.87009ZM3.97001 9.61059C4.0288 9.60954 4.08536 9.58789 4.12982 9.54941C4.17428 9.51092 4.20381 9.45806 4.21328 9.40002C4.22274 9.34199 4.21153 9.28248 4.1816 9.23187C4.15167 9.18125 4.10493 9.14276 4.04951 9.12309L2.54951 8.62309C2.48724 8.60421 2.42006 8.61036 2.36224 8.64023C2.30443 8.6701 2.26054 8.72134 2.2399 8.78306C2.21927 8.84477 2.22351 8.9121 2.25172 8.97074C2.27994 9.02938 2.32991 9.0747 2.39101 9.09709L3.89101 9.59709C3.91645 9.6058 3.94313 9.61036 3.97001 9.61059ZM3.68151 11.3531C3.7403 11.352 3.79686 11.3304 3.84132 11.2919C3.88578 11.2534 3.91531 11.2006 3.92478 11.1425C3.93424 11.0845 3.92303 11.025 3.8931 10.9744C3.86317 10.9238 3.81643 10.8853 3.76101 10.8656L2.26101 10.3656C2.22986 10.3552 2.19695 10.351 2.16418 10.3533C2.13141 10.3556 2.09941 10.3643 2.07002 10.379C2.04062 10.3937 2.01441 10.414 1.99287 10.4388C1.97134 10.4636 1.95491 10.4924 1.94451 10.5236C1.93409 10.5547 1.92991 10.5876 1.9322 10.6204C1.9345 10.6532 1.94324 10.6852 1.95791 10.7146C1.97259 10.744 1.99291 10.7702 2.01772 10.7917C2.04254 10.8133 2.07135 10.8297 2.10251 10.8401L3.60251 11.3401C3.62798 11.3486 3.65465 11.353 3.68151 11.3531ZM3.36101 13.0971C3.42005 13.0956 3.47665 13.0733 3.52083 13.0341C3.56501 12.9949 3.59393 12.9414 3.60248 12.8829C3.61103 12.8245 3.59867 12.7649 3.56757 12.7147C3.53647 12.6645 3.48864 12.6269 3.43251 12.6086L1.92551 12.1311C1.86339 12.1149 1.79743 12.1232 1.74124 12.1542C1.68505 12.1853 1.64292 12.2367 1.62354 12.2979C1.60417 12.3591 1.60903 12.4254 1.63712 12.4831C1.66522 12.5408 1.7144 12.5856 1.77451 12.6081L3.28151 13.0856C3.30722 13.0937 3.33407 13.0976 3.36101 13.0971ZM3.06351 14.7996C3.11579 14.7953 3.16541 14.7747 3.20534 14.7407C3.24527 14.7067 3.27349 14.661 3.28601 14.6101C3.29385 14.5782 3.29532 14.545 3.29034 14.5125C3.28536 14.4801 3.27402 14.4489 3.25698 14.4208C3.23993 14.3927 3.21752 14.3682 3.19102 14.3488C3.16451 14.3294 3.13444 14.3154 3.10251 14.3076L1.56701 13.9306C1.50392 13.9185 1.4386 13.9311 1.38453 13.9658C1.33047 14.0005 1.2918 14.0546 1.27653 14.117C1.26125 14.1794 1.27053 14.2453 1.30244 14.3011C1.33436 14.3568 1.38647 14.3982 1.44801 14.4166L2.98351 14.7936C3.00968 14.7999 3.0367 14.8019 3.06351 14.7996ZM2.77501 16.5191C2.83364 16.5127 2.88814 16.4859 2.92893 16.4433C2.96972 16.4007 2.99418 16.3451 2.99801 16.2863C3.00183 16.2274 2.98477 16.1691 2.94984 16.1216C2.9149 16.0741 2.86432 16.0405 2.80701 16.0266L1.26601 15.6736C1.20305 15.6631 1.13848 15.6771 1.08547 15.7127C1.03246 15.7482 0.995023 15.8026 0.980794 15.8649C0.966564 15.9271 0.976618 15.9924 1.0089 16.0474C1.04119 16.1025 1.09327 16.1431 1.15451 16.1611L2.69551 16.5141C2.72158 16.52 2.74842 16.5217 2.77501 16.5191ZM8.01251 6.87509C8.07576 6.87367 8.13612 6.84839 8.18149 6.8043C8.22685 6.76022 8.25386 6.70061 8.25709 6.63743C8.26032 6.57426 8.23953 6.5122 8.19889 6.46372C8.15825 6.41525 8.10078 6.38394 8.03801 6.37609L5.62901 6.12659C5.56317 6.1204 5.49753 6.1403 5.4462 6.182C5.39487 6.2237 5.36195 6.28387 5.35451 6.34959C5.34766 6.41548 5.36724 6.48141 5.40896 6.53288C5.45068 6.58435 5.51112 6.61715 5.57701 6.62409L7.98601 6.87359L8.01251 6.87509ZM7.97101 5.10159C8.02894 5.1015 8.08504 5.0813 8.12972 5.04444C8.17441 5.00757 8.2049 4.95634 8.216 4.89949C8.2271 4.84263 8.21811 4.78369 8.19057 4.73273C8.16303 4.68177 8.11865 4.64195 8.06501 4.62009C7.26501 4.29609 5.01751 4.15509 4.91151 4.14909C4.75501 4.13609 4.65601 4.24859 4.64901 4.38559C4.64726 4.41843 4.65201 4.45129 4.66298 4.48229C4.67395 4.5133 4.69093 4.54183 4.71294 4.56626C4.73496 4.59069 4.76158 4.61054 4.79128 4.62467C4.82097 4.63879 4.85317 4.64692 4.88601 4.64859C5.58301 4.68459 7.27751 4.84009 7.87701 5.08309C7.90686 5.09525 7.93878 5.10154 7.97101 5.10159ZM9.74601 3.50009C9.71397 3.50087 9.68209 3.49534 9.65218 3.48381C9.62228 3.47227 9.59494 3.45496 9.57172 3.43286C9.54851 3.41076 9.52987 3.38431 9.51688 3.355C9.50389 3.3257 9.4968 3.29413 9.49601 3.26209C9.49523 3.23004 9.50076 3.19816 9.51229 3.16825C9.52383 3.13835 9.54114 3.11101 9.56324 3.08779C9.58534 3.06458 9.61179 3.04594 9.6411 3.03295C9.6704 3.01996 9.70197 3.01287 9.73401 3.01209C10.0145 2.99909 10.5985 2.73209 10.901 2.56609C10.9299 2.55023 10.9615 2.54022 10.9943 2.53664C11.027 2.53306 11.0601 2.53597 11.0917 2.54522C11.1233 2.55446 11.1527 2.56986 11.1783 2.59051C11.204 2.61117 11.2253 2.63668 11.241 2.66559C11.2568 2.69375 11.2668 2.72479 11.2704 2.75687C11.274 2.78896 11.2711 2.82144 11.2619 2.85239C11.2527 2.88334 11.2374 2.91214 11.2169 2.93708C11.1964 2.96202 11.1711 2.98259 11.1425 2.99759C11.052 3.04759 10.244 3.50009 9.75801 3.50009H9.74601Z" fill="#3B88C3"/>
</g>
<defs>
<clipPath id="clip0_26_5371">
<rect width="18" height="18" fill="white"/>
</clipPath>
</defs>
</svg>
