<svg width="110" height="110" viewBox="0 0 110 110" fill="none" xmlns="http://www.w3.org/2000/svg">
<path d="M62.9356 63.4888C59.85 63.6668 56.7604 63.2152 53.8563 62.1618C50.9522 61.1084 48.2949 59.4754 46.0471 57.363C43.7993 55.2505 42.0086 52.7031 40.7846 49.877C39.5607 47.0509 38.9293 44.0056 38.9293 40.9278C38.9293 37.8501 39.5607 34.8048 40.7846 31.9786C42.0086 29.1525 43.7993 26.6051 46.0471 24.4926C48.2949 22.3802 50.9522 20.7472 53.8563 19.6938C56.7604 18.6404 59.85 18.1889 62.9356 18.3668C64.8843 18.3523 66.8255 18.6066 68.7041 19.1226C63.077 15.0893 56.3063 12.9452 49.3733 13.0011C42.4403 13.0569 35.7053 15.3099 30.1445 19.4334C24.5837 23.5568 20.4861 29.3366 18.4456 35.9348C16.405 42.533 16.5276 49.6069 18.7955 56.1311C21.0634 62.6553 25.3589 68.2908 31.0592 72.2208C36.7596 76.1508 43.5686 78.171 50.4994 77.9887C57.4302 77.8063 64.1226 75.4309 69.6066 71.2067C75.0906 66.9825 79.0812 61.129 81 54.4947C78.9029 57.2938 76.1768 59.5652 73.0399 61.127C69.9031 62.6889 66.4427 63.4977 62.9356 63.4888Z" fill="url(#paint0_linear_26_5134)"/>
<path d="M75 43C75 40.3478 74.1085 37.8043 72.5217 35.9289C70.9348 34.0536 68.7826 33 66.5385 33C68.7826 33 70.9348 31.9464 72.5217 30.0711C74.1085 28.1957 75 25.6522 75 23C75 24.3132 75.2189 25.6136 75.6441 26.8268C76.0693 28.0401 76.6926 29.1425 77.4783 30.0711C78.264 30.9997 79.1968 31.7362 80.2234 32.2388C81.25 32.7413 82.3503 33 83.4615 33C82.3503 33 81.25 33.2587 80.2234 33.7612C79.1968 34.2638 78.264 35.0004 77.4783 35.9289C76.6926 36.8575 76.0693 37.9599 75.6441 39.1732C75.2189 40.3864 75 41.6868 75 43Z" fill="url(#paint1_linear_26_5134)"/>
<path d="M8.46155 78C8.46155 75.3478 7.57006 72.8043 5.98321 70.9289C4.39636 69.0536 2.24414 68 0 68C2.24414 68 4.39636 66.9464 5.98321 65.0711C7.57006 63.1957 8.46155 60.6522 8.46155 58C8.46155 59.3132 8.68041 60.6136 9.10564 61.8268C9.53087 63.0401 10.1541 64.1425 10.9399 65.0711C11.7256 65.9997 12.6584 66.7362 13.685 67.2388C14.7116 67.7413 15.8119 68 16.9231 68C15.8119 68 14.7116 68.2587 13.685 68.7612C12.6584 69.2638 11.7256 70.0004 10.9399 70.9289C10.1541 71.8575 9.53087 72.9599 9.10564 74.1732C8.68041 75.3864 8.46155 76.6868 8.46155 78Z" fill="url(#paint2_linear_26_5134)"/>
<path fill-rule="evenodd" clip-rule="evenodd" d="M89.6337 46.6128C89.6337 45.2321 90.753 44.1128 92.1337 44.1128H95.8661C101.369 44.1128 105.831 48.5742 105.831 54.0776C105.831 59.581 101.369 64.0424 95.8661 64.0424H71.9788C70.598 64.0424 69.4788 62.9231 69.4788 61.5424C69.4788 60.1617 70.598 59.0424 71.9788 59.0424H95.8661C98.6081 59.0424 100.831 56.8196 100.831 54.0776C100.831 51.3356 98.6081 49.1128 95.8661 49.1128H92.1337C90.753 49.1128 89.6337 47.9935 89.6337 46.6128ZM92.9928 94.3875C92.9928 95.7682 94.1121 96.8875 95.4928 96.8875H99.2252C104.729 96.8875 109.19 92.4261 109.19 86.9227C109.19 81.4193 104.729 76.9579 99.2252 76.9579L60.7816 76.9579C59.4009 76.9579 58.2816 78.0772 58.2816 79.4579C58.2816 80.8386 59.4009 81.9579 60.7816 81.9579L99.2252 81.9579C101.967 81.9579 104.19 84.1807 104.19 86.9227C104.19 89.6646 101.967 91.8875 99.2252 91.8875H95.4928C94.1121 91.8875 92.9928 93.0067 92.9928 94.3875ZM51.8238 81.9579C53.2045 81.9579 54.3238 80.8386 54.3238 79.4579C54.3238 78.0772 53.2045 76.9579 51.8238 76.9579H43.6126C42.2318 76.9579 41.1125 78.0772 41.1125 79.4579C41.1125 80.8386 42.2318 81.9579 43.6125 81.9579H51.8238ZM109.563 70.5001C109.563 71.8808 108.444 73.0001 107.063 73.0001H94.3731C92.9924 73.0001 91.8731 71.8808 91.8731 70.5001C91.8731 69.1194 92.9924 68.0001 94.3731 68.0001H107.063C108.444 68.0001 109.563 69.1194 109.563 70.5001ZM84.6689 73.0001C86.0496 73.0001 87.1689 71.8808 87.1689 70.5001C87.1689 69.1194 86.0496 68.0001 84.6689 68.0001L43.6125 68.0001C42.2318 68.0001 41.1125 69.1194 41.1125 70.5001C41.1125 71.8808 42.2318 73.0001 43.6125 73.0001L84.6689 73.0001Z" fill="url(#paint3_linear_26_5134)"/>
<defs>
<linearGradient id="paint0_linear_26_5134" x1="49" y1="13" x2="49" y2="78" gradientUnits="userSpaceOnUse">
<stop stop-color="#FDC500"/>
<stop offset="1" stop-color="#FD8900"/>
</linearGradient>
<linearGradient id="paint1_linear_26_5134" x1="75" y1="23" x2="75" y2="43" gradientUnits="userSpaceOnUse">
<stop stop-color="#FDC500"/>
<stop offset="1" stop-color="#FD8900"/>
</linearGradient>
<linearGradient id="paint2_linear_26_5134" x1="8.46154" y1="58" x2="8.46154" y2="78" gradientUnits="userSpaceOnUse">
<stop stop-color="#FDC500"/>
<stop offset="1" stop-color="#FD8900"/>
</linearGradient>
<linearGradient id="paint3_linear_26_5134" x1="71" y1="37.5001" x2="104.5" y2="101.5" gradientUnits="userSpaceOnUse">
<stop stop-color="#D7F0FF"/>
<stop offset="0.856457" stop-color="#0072DC"/>
</linearGradient>
</defs>
</svg>
