<svg width="117" height="113" viewBox="0 0 117 113" fill="none" xmlns="http://www.w3.org/2000/svg">
<g filter="url(#filter0_ddi_26_5133)">
<circle cx="48" cy="48" r="32" fill="url(#paint0_linear_26_5133)"/>
</g>
<path fill-rule="evenodd" clip-rule="evenodd" d="M88.6337 49.6128C88.6337 48.2321 89.753 47.1128 91.1337 47.1128H94.8661C100.369 47.1128 104.831 51.5742 104.831 57.0776C104.831 62.581 100.369 67.0424 94.8661 67.0424H70.9788C69.598 67.0424 68.4788 65.9231 68.4788 64.5424C68.4788 63.1617 69.598 62.0424 70.9788 62.0424H94.8661C97.6081 62.0424 99.8309 59.8196 99.8309 57.0776C99.8309 54.3356 97.6081 52.1128 94.8661 52.1128H91.1337C89.753 52.1128 88.6337 50.9935 88.6337 49.6128ZM91.9928 97.3875C91.9928 98.7682 93.1121 99.8875 94.4928 99.8875H98.2252C103.729 99.8875 108.19 95.4261 108.19 89.9227C108.19 84.4193 103.729 79.9579 98.2252 79.9579L59.7816 79.9579C58.4009 79.9579 57.2816 81.0772 57.2816 82.4579C57.2816 83.8386 58.4009 84.9579 59.7816 84.9579L98.2252 84.9579C100.967 84.9579 103.19 87.1807 103.19 89.9227C103.19 92.6646 100.967 94.8875 98.2252 94.8875H94.4928C93.1121 94.8875 91.9928 96.0067 91.9928 97.3875ZM50.8238 84.9579C52.2045 84.9579 53.3238 83.8386 53.3238 82.4579C53.3238 81.0772 52.2045 79.9579 50.8238 79.9579H42.6126C41.2318 79.9579 40.1125 81.0772 40.1125 82.4579C40.1125 83.8386 41.2318 84.9579 42.6125 84.9579H50.8238ZM108.563 73.5001C108.563 74.8808 107.444 76.0001 106.063 76.0001H93.3731C91.9924 76.0001 90.8731 74.8808 90.8731 73.5001C90.8731 72.1194 91.9924 71.0001 93.3731 71.0001H106.063C107.444 71.0001 108.563 72.1194 108.563 73.5001ZM83.6689 76.0001C85.0496 76.0001 86.1689 74.8808 86.1689 73.5001C86.1689 72.1194 85.0496 71.0001 83.6689 71.0001L42.6125 71.0001C41.2318 71.0001 40.1125 72.1194 40.1125 73.5001C40.1125 74.8808 41.2318 76.0001 42.6125 76.0001L83.6689 76.0001Z" fill="url(#paint1_linear_26_5133)"/>
<defs>
<filter id="filter0_ddi_26_5133" x="0" y="0" width="96" height="96" filterUnits="userSpaceOnUse" color-interpolation-filters="sRGB">
<feFlood flood-opacity="0" result="BackgroundImageFix"/>
<feColorMatrix in="SourceAlpha" type="matrix" values="0 0 0 0 0 0 0 0 0 0 0 0 0 0 0 0 0 0 127 0" result="hardAlpha"/>
<feOffset/>
<feGaussianBlur stdDeviation="8"/>
<feComposite in2="hardAlpha" operator="out"/>
<feColorMatrix type="matrix" values="0 0 0 0 0.992157 0 0 0 0 0.773882 0 0 0 0 0 0 0 0 1 0"/>
<feBlend mode="normal" in2="BackgroundImageFix" result="effect1_dropShadow_26_5133"/>
<feColorMatrix in="SourceAlpha" type="matrix" values="0 0 0 0 0 0 0 0 0 0 0 0 0 0 0 0 0 0 127 0" result="hardAlpha"/>
<feOffset/>
<feGaussianBlur stdDeviation="5.5"/>
<feComposite in2="hardAlpha" operator="out"/>
<feColorMatrix type="matrix" values="0 0 0 0 0.992157 0 0 0 0 0.772549 0 0 0 0 0 0 0 0 0.45 0"/>
<feBlend mode="normal" in2="effect1_dropShadow_26_5133" result="effect2_dropShadow_26_5133"/>
<feBlend mode="normal" in="SourceGraphic" in2="effect2_dropShadow_26_5133" result="shape"/>
<feColorMatrix in="SourceAlpha" type="matrix" values="0 0 0 0 0 0 0 0 0 0 0 0 0 0 0 0 0 0 127 0" result="hardAlpha"/>
<feOffset dx="-1" dy="3"/>
<feGaussianBlur stdDeviation="2.5"/>
<feComposite in2="hardAlpha" operator="arithmetic" k2="-1" k3="1"/>
<feColorMatrix type="matrix" values="0 0 0 0 1 0 0 0 0 0.9 0 0 0 0 0 0 0 0 0.35 0"/>
<feBlend mode="normal" in2="shape" result="effect3_innerShadow_26_5133"/>
</filter>
<linearGradient id="paint0_linear_26_5133" x1="48" y1="16" x2="48" y2="80" gradientUnits="userSpaceOnUse">
<stop stop-color="#FDC500"/>
<stop offset="1" stop-color="#FD8900"/>
</linearGradient>
<linearGradient id="paint1_linear_26_5133" x1="69" y1="32.0001" x2="97.5" y2="100" gradientUnits="userSpaceOnUse">
<stop stop-color="#D7F0FF"/>
<stop offset="1" stop-color="#0072DC"/>
</linearGradient>
</defs>
</svg>
